<svg viewBox="0 0 24 24" xmlns="http://www.w3.org/2000/svg" fill="#ccc">
  <path d="M7.1 3.5C4 5.8 2.3 10.1 2.3 14.2c0 2 .3 4.5 1.5 6.3l-.6.5c-1.9-1.9-3-4.4-2.9-7.1 0-5 2.8-9.2 6.4-10.9l.4.5zM7.4 8.9l3.5-.6c.6 1 1.1 2.1 1.3 3.3.5-.7 1-1.4 1.5-2 .3-.4.7-.7 1.1-1 .3-.2.6-.3.9-.3.3 0 .6.1.8.3.2.2.3.5.3.8 0 .3-.1.6-.3.8-.2.2-.5.3-.7.3-.2 0-.5 0-.7-.1-.2-.1-.4-.1-.6-.1-.3 0-.6.1-.8.3-.5.5-1 1.1-1.3 1.8.3 1.3.8 2.5 1.4 3.7.1.2.4.4.6.4.2 0 .3 0 .5-.1.3-.3.6-.7.9-1.1l.4.2c-.4.8-1 1.5-1.7 2-.4.3-.8.4-1.3.5-.4 0-.7-.1-1.1-.3-.3-.2-.6-.6-.8-.9-.3-.7-.6-1.4-.8-2.1-.8 1-1.4 1.7-1.9 2.2-.3.4-.7.7-1.1.9-.3.1-.6.2-.9.2-.3 0-.6-.1-.8-.3-.2-.2-.3-.5-.3-.8 0-.6.5-1.1 1.1-1.2h.1c.2 0 .4.1.6.1.2.1.5.2.7.2.2 0 .4 0 .5-.1.3-.2.5-.4.8-.6.2-.2.5-.6 1-1.3-.3-1.6-.8-3-1.5-4.4-.2-.2-.5-.4-.8-.4-.2 0-.4 0-.7.1l.1-.4zM20.9 3c2 1.9 3 4.5 2.9 7.2 0 4.9-2.8 9.2-6.4 10.8l-.4-.5c3.1-2.3 4.8-6.6 4.8-10.6 0-2-.3-4.6-1.5-6.3l.6-.6z"></path>
</svg>
