<svg viewBox="0 0 24 24" xmlns="http://www.w3.org/2000/svg" xmlns:xlink="http://www.w3.org/1999/xlink">
    <g id="Dark" fill-rule="evenodd">
        <g fill="currentColor">
            <g transform="translate(2, 0) scale(1.1)">
                <polygon points="0 14.1296 0 21.9016 18.041 21.9016 18.041 17.0136 16.042 17.0136 16.042 19.9026 2 19.9026 2 14.1296"></polygon>
                <polygon points="0 -0.0004 0 14.7126 2 14.7126 2 2.0006 16.042 2.0006 16.042 18.1986 18.041 18.1986 18.041 -0.0004"></polygon>
                <g transform="translate(3.000000, 6.902000)">
                    <path d="M5.0213,4.1115 C5.0213,3.5585 5.4683,3.1115 6.0213,3.1115 C6.5733,3.1115 7.0213,3.5585 7.0213,4.1115 C7.0213,4.6635 6.5733,5.1115 6.0213,5.1115 C5.4683,5.1115 5.0213,4.6635 5.0213,4.1115"></path>
                    <path d="M3.3553,4.1115 C3.9623,4.8405 5.0013,5.8105 6.0203,5.8105 C7.0393,5.8105 8.0783,4.8405 8.6853,4.1115 C8.0783,3.3835 7.0393,2.4125 6.0203,2.4125 C5.0013,2.4125 3.9623,3.3825 3.3553,4.1115 M6.0203,7.8105 C3.3923,7.8105 1.4783,4.9785 1.2683,4.6555 L0.9153,4.1115 L1.2683,3.5675 C1.4783,3.2445 3.3923,0.4125 6.0203,0.4125 C8.6483,0.4125 10.5623,3.2445 10.7723,3.5675 L11.1263,4.1115 L10.7723,4.6555 C10.5623,4.9785 8.6483,7.8105 6.0203,7.8105"></path>
                </g>
            </g>
        </g>
    </g>
</svg>