<svg viewBox="0 0 24 24" xmlns="http://www.w3.org/2000/svg" xmlns:xlink="http://www.w3.org/1999/xlink">
    <g id="Dark" fill-rule="evenodd">
		<g transform="translate(1.000000, 1.000000)">
			<g transform="translate(0.000000, 0.884100)">
				<path d="M10.1039,18.0004 C8.1439,18.0004 6.5549,16.4114 6.5549,14.4504 L6.5559,13.9324 C6.5459,13.9344 6.5409,13.9354 6.5309,13.9364 C6.0909,14.0094 5.8959,14.0194 5.6389,14.0194 C5.5549,14.0194 5.4649,14.0184 5.3569,14.0184 C3.5019,14.0184 1.9999,12.5154 1.9999,10.6614 C1.9999,9.2924 2.8199,8.1134 3.9969,7.5924 L4.0199,7.6054 C3.9129,7.2294 3.8369,6.8404 3.8369,6.4294 C3.8369,4.6204 4.9529,3.0774 6.5309,2.4374 C7.0319,2.2324 7.5769,2.1154 8.1509,2.1154 C10.0479,2.1154 11.6419,3.3504 12.2189,5.0534 C12.5629,4.6404 13.0749,4.3724 13.6539,4.3724 C14.6889,4.3724 15.5279,5.2114 15.5279,6.2464 C15.5279,6.2894 15.5139,6.3294 15.5099,6.3714 C15.7749,6.3314 16.0439,6.3044 16.3209,6.3044 C16.7279,6.3044 17.1249,6.3534 17.5059,6.4384 C17.5099,6.3744 17.5279,6.3124 17.5279,6.2464 C17.5279,4.1094 15.7899,2.3724 13.6539,2.3724 C13.4369,2.3724 13.2229,2.3904 13.0139,2.4254 C12.8219,2.1904 12.6089,1.9784 12.3869,1.7734 C11.2519,0.7344 9.7569,0.1154 8.1509,0.1154 C4.6689,0.1154 1.8369,2.9484 1.8369,6.4294 C1.8369,6.4924 1.8379,6.5564 1.8399,6.6204 C0.6909,7.6224 -0.0001,9.0884 -0.0001,10.6614 C-0.0001,13.4174 2.0919,15.6944 4.7719,15.9864 C5.0799,17.0524 5.7079,17.9754 6.5309,18.6734 C7.4989,19.4934 8.7399,20.0004 10.1039,20.0004 C12.2619,20.0004 14.1129,18.7514 15.0259,16.9464 C14.3639,16.7824 13.7499,16.4994 13.2089,16.1164 C12.6169,17.2324 11.4579,18.0004 10.1039,18.0004" fill="currentColor"></path>
			</g>
			<polygon fill="currentColor" points="15.8461 10.0261 13.8461 10.0261 13.8461 13.9651 17.7711 13.9651 17.7711 11.9651 15.8461 11.9651"></polygon>
			<path d="M14.8969,6.5085 C11.3609,6.5085 8.4939,9.3755 8.4939,12.9115 C8.4939,16.4475 11.3609,19.3155 14.8969,19.3155 C18.4329,19.3155 21.2999,16.4475 21.2999,12.9115 C21.2999,9.3755 18.4329,6.5085 14.8969,6.5085 M14.8969,8.5085 C17.3249,8.5085 19.2999,10.4845 19.2999,12.9115 C19.2999,15.3395 17.3249,17.3155 14.8969,17.3155 C12.4689,17.3155 10.4939,15.3395 10.4939,12.9115 C10.4939,10.4845 12.4689,8.5085 14.8969,8.5085" fill="currentColor"></path>
		</g>
	</g>
</svg>
