<svg viewBox="0 0 24 24" xmlns="http://www.w3.org/2000/svg" xmlns:xlink="http://www.w3.org/1999/xlink">
    <g id="Dark" fill-rule="evenodd">
		<g transform="translate(1.000000, 0.000000)">
			<path d="M17.4456,0.9996 L16.4426,2.7306 L10.8806,12.3356 L10.6536,12.7306 L10.6176,13.1846 L10.5116,14.5546 L10.1896,18.7496 L13.6466,16.3506 L14.7966,15.5536 L15.1636,15.2986 L15.3876,14.9116 L19.3626,8.0466 L19.3936,8.0656 L20.3956,6.3336 L20.3656,6.3166 L20.9346,5.3326 L21.9376,3.6016 L20.2066,2.5986 L19.1766,2.0026 L17.4456,0.9996 Z M17.6036,4.7176 L18.1746,3.7336 L19.2046,4.3306 L18.6346,5.3146 L17.6036,4.7176 Z M12.6116,13.3376 L16.6026,6.4486 L17.6326,7.0446 L13.6566,13.9106 L12.5066,14.7086 L12.6116,13.3376 Z" fill="currentColor"></path>
			<polygon fill="currentColor" points="0 22.902 21.937 22.902 21.937 20.944 0 20.944"></polygon>
			<g transform="translate(0.000000, 0.902000)">
				<path d="M8.7457,8.4193 L7.4587,9.7053 L5.3787,7.6243 L5.3757,7.6273 L5.3737,7.6243 L3.2927,9.7053 L2.0067,8.4193 L4.0867,6.3383 L2.0067,4.2573 L3.2927,2.9703 L5.3737,5.0513 L5.3757,5.0493 L5.3787,5.0513 L7.4587,2.9703 L8.7457,4.2573 L6.6647,6.3383 L8.7457,8.4193 Z M5.3757,0.9623 C2.4067,0.9623 -0.0003,3.3693 -0.0003,6.3383 C-0.0003,9.3073 2.4067,11.7143 5.3757,11.7143 C8.3457,11.7143 10.7517,9.3073 10.7517,6.3383 C10.7517,3.3693 8.3457,0.9623 5.3757,0.9623 L5.3757,0.9623 Z" id="Fill-3" fill="currentColor"></path>
			</g>
		</g>
    </g>
</svg>