<svg viewBox="0 0 24 24" xmlns="http://www.w3.org/2000/svg" xmlns:xlink="http://www.w3.org/1999/xlink">
    <g id="Dark" fill-rule="evenodd">
		<g transform="translate(0.5, 0) scale(1.09)">
			<path d="M17.8553,14.4767 L11.8143,14.4767 L11.8143,10.9507 C11.8143,9.0087 13.3933,7.4297 15.3343,7.4297 C16.8233,7.4297 18.1563,8.3727 18.6533,9.7747 L16.7683,10.4427 C16.5533,9.8367 15.9773,9.4297 15.3343,9.4297 C14.4963,9.4297 13.8143,10.1117 13.8143,10.9507 L13.8143,12.4767 L17.8553,12.4767 L17.8553,14.4767 Z" fill="currentColor"></path>
			<path d="M9.815,20.9915 L19.896,20.9915 L19.896,12.4295 L9.815,12.4295 L9.815,20.9915 Z M11.815,18.9915 L17.896,18.9915 L17.896,14.4295 L11.815,14.4295 L11.815,18.9915 Z" fill="currentColor"></path>
			<path d="M8.7454,8.4569 L7.4584,9.7439 L5.3784,7.6629 L5.3754,7.6649 L5.3734,7.6629 L3.2934,9.7439 L2.0064,8.4569 L4.0874,6.3759 L2.0064,4.2949 L3.2934,3.0079 L5.3734,5.0889 L5.3754,5.0869 L5.3784,5.0889 L7.4584,3.0079 L8.7454,4.2949 L6.6644,6.3759 L8.7454,8.4569 Z M5.3754,0.9999 C2.4064,0.9999 0.0004,3.4069 0.0004,6.3759 C0.0004,9.3449 2.4064,11.7519 5.3754,11.7519 C8.3454,11.7519 10.7514,9.3449 10.7514,6.3759 C10.7514,3.4069 8.3454,0.9999 5.3754,0.9999 L5.3754,0.9999 Z" fill="currentColor"></path>
		</g>
    </g>
</svg>