<svg xmlns="http://www.w3.org/2000/svg" xmlns:xlink="http://www.w3.org/1999/xlink" viewBox="0 0 24 24">
    <g id="Dark" fill="none" fill-rule="evenodd">
		<g fill="currentColor" transform="translate(2.000000, 0.000000)">
			<g transform="translate(2.000000, 0.154300)">
				<path d="M4.8799,2.8457 C3.5789,2.8457 2.5209,3.8797 2.5209,5.1507 C2.5209,6.4207 3.5789,7.4547 4.8799,7.4547 C6.1819,7.4547 7.2399,6.4207 7.2399,5.1507 C7.2399,3.8797 6.1819,2.8457 4.8799,2.8457 M4.8799,9.4547 C2.4769,9.4547 0.5209,7.5247 0.5209,5.1507 C0.5209,2.7767 2.4769,0.8457 4.8799,0.8457 C7.2839,0.8457 9.2399,2.7767 9.2399,5.1507 C9.2399,7.5247 7.2839,9.4547 4.8799,9.4547"></path>
			</g>
			<g transform="translate(0.000000, 6.154300)">
				<path d="M13.4316,16 L-0.0004,16 L-0.0004,6.848 C-0.0004,4.123 1.6586,1.71 4.2246,0.698 L4.9566,2.56 C3.1606,3.267 1.9996,4.95 1.9996,6.848 L1.9996,14 L11.4316,14 L11.4316,6.848 C11.4316,5.185 10.5116,3.642 9.0316,2.821 L9.9996,1.071 C12.1176,2.244 13.4316,4.457 13.4316,6.848 L13.4316,16 Z"></path>
			</g>
			<path d="M15.3438,9.8093 C13.9618,9.9373 12.6518,10.7143 11.9598,11.9573 C11.8828,12.0943 11.8128,12.2363 11.7538,12.3823 C11.7018,12.5123 11.6678,12.6503 11.6288,12.7863 C11.5948,12.8993 11.5508,13.0083 11.5268,13.1263 C11.4728,13.3953 11.4428,13.6743 11.4428,13.9593 C11.4428,13.9753 11.4458,13.9913 11.4458,14.0073 C11.4478,14.2313 11.4768,14.4473 11.5118,14.6623 C11.5318,14.7763 11.5528,14.8893 11.5828,15.0003 C11.5978,15.0613 11.6208,15.1193 11.6388,15.1803 C11.9578,16.1823 12.6478,17.0213 13.5538,17.5443 C13.5528,17.5693 13.5458,17.5923 13.5448,17.6173 C14.1238,17.9593 14.7868,18.1673 15.5008,18.2003 C15.5048,18.1703 15.5158,18.1443 15.5188,18.1153 C15.5788,18.1173 15.6338,18.1323 15.6938,18.1323 C18.0398,18.1323 19.9408,16.2643 19.9458,13.9573 C19.9448,13.6873 19.9148,13.4233 19.8658,13.1673 C19.8518,13.0923 19.8288,13.0213 19.8098,12.9483 C19.7818,12.8343 19.7438,12.7243 19.7068,12.6143 L16.4488,15.9383 L15.7068,16.6953 L15.4528,16.3313 L15.1018,15.8293 L13.3398,13.3063 L14.7778,12.3343 L15.0778,12.7903 L15.9018,14.0423 L18.7888,11.0793 C18.8318,11.0343 17.9948,10.4333 17.9158,10.3863 C17.5958,10.1943 17.2508,10.0463 16.8918,9.9463 C16.3838,9.8043 15.8588,9.7613 15.3438,9.8093"></path>
		</g>
    </g>
</svg>