<svg xmlns="http://www.w3.org/2000/svg" xmlns:xlink="http://www.w3.org/1999/xlink" viewBox="0 0 24 24">
    <g id="Dark" fill="none">
        <g fill="currentColor" transform="translate(2.000000, 2.200000)" fill-rule="evenodd">
			<path d="M0,-0.0001 L0,1.9999 L0,4.7689 L0,6.7689 L2,6.7689 L4.815,6.7689 L6.815,6.7689 L6.815,4.7689 L6.815,1.9999 L6.815,-0.0001 L0,-0.0001 Z M2,4.7689 L4.815,4.7689 L4.815,1.9999 L2,1.9999 L2,4.7689 Z"></path>
			<path d="M4.815,12.8294 L2,12.8294 L0,12.8294 L0,14.8294 L0,17.5984 L0,19.5984 L2,19.5984 L4.815,19.5984 L6.815,19.5984 L6.815,17.5984 L6.815,14.8294 L6.815,12.8294 L4.815,12.8294 Z M2,17.5984 L4.815,17.5984 L4.815,14.8294 L2,14.8294 L2,17.5984 Z"></path>
			<polygon points="2.408 14.2483 4.408 14.2483 4.408 5.8853 2.408 5.8853"></polygon>
			<polygon points="6.38 11.0663 9.75 11.0663 9.75 9.0663 6.38 9.0663"></polygon>
			<path d="M11.771,16.2133 L19.753,16.2133 L19.753,3.3843 L11.771,3.3843 L11.771,16.2133 Z M13.771,14.2133 L17.753,14.2133 L17.753,5.3843 L13.771,5.3843 L13.771,14.2133 Z"></path>
        </g>
    </g>
</svg>