<!-- DUPLICATE: compare_document_versions.svg -->

<svg viewBox="0 0 24 24" xmlns="http://www.w3.org/2000/svg" xmlns:xlink="http://www.w3.org/1999/xlink">
    <g id="Dark" fill-rule="evenodd">
		<g transform="translate(1.000000, 1.000000)">
			<polygon fill="currentColor" points="8.25 1.9986 21.999 1.9986 21.999 0.0006 8.25 0.0006"></polygon>
			<polygon fill="currentColor" points="15.868 18.2466 22 18.2466 22 16.2476 15.868 16.2476"></polygon>
			<polygon fill="currentColor" points="19.955 16.7076 22 16.7076 22 0.0006 19.955 0.0006"></polygon>
			<g transform="translate(0.000000, 2.913600)">
				<g transform="translate(3.000000, 5.000000)">
					<path d="M5.1539,8.0743 C3.6049,8.0743 2.3499,6.8193 2.3499,5.2703 C2.3499,3.7213 3.6049,2.4663 5.1539,2.4663 C6.7029,2.4663 7.9579,3.7213 7.9579,5.2703 C7.9579,6.8193 6.7029,8.0743 5.1539,8.0743 L5.1539,8.0743 Z M12.1609,11.8783 L8.7309,8.4483 C9.4859,7.6003 9.9579,6.4953 9.9579,5.2703 C9.9579,2.6173 7.8069,0.4663 5.1539,0.4663 C2.5009,0.4663 0.3499,2.6173 0.3499,5.2703 C0.3499,7.9233 2.5009,10.0743 5.1539,10.0743 C5.8509,10.0743 6.5089,9.9193 7.1059,9.6523 L10.7469,13.2933 L11.4539,14.0003 L12.8679,12.5853 L12.1609,11.8783 Z" fill="currentColor"></path>
				</g>
				<polyline fill="currentColor" points="10.7492 17 10.0102 17 2.0002 17 2.0002 12.684 2.0002 2.753 11.7502 2.753 11.7502 4.449 11.7502 4.96 13.7502 4.96 13.7502 4.449 13.7502 2.753 13.7502 0.753 11.7502 0.753 2.0002 0.753 0.0002 0.753 0.0002 2.753 0.0002 12.684 0.0002 17 0.0002 19 2.0002 19 10.7492 19"></polyline>
			</g>
		</g>
    </g>
</svg>