<svg viewBox="0 0 24 24" xmlns="http://www.w3.org/2000/svg" xmlns:xlink="http://www.w3.org/1999/xlink">
    <g id="Dark" fill-rule="evenodd">
		<g transform="translate(2.000000, 2.000000)">
			<path d="M18.7216,11.8795 L16.8976,11.8795 L16.8976,13.7035 L14.8976,13.7035 L14.8976,11.8795 L13.0746,11.8795 L13.0746,9.8795 L14.8976,9.8795 L14.8976,8.0555 L16.8976,8.0555 L16.8976,9.8795 L18.7216,9.8795 L18.7216,11.8795 Z M10.1046,17.8845 C8.1446,17.8845 6.5556,16.2955 6.5556,14.3345 L6.5566,13.8165 C6.5466,13.8175 6.5396,13.8185 6.5316,13.8195 C6.0916,13.8935 5.8966,13.9025 5.6386,13.9025 C5.5556,13.9025 5.4646,13.9015 5.3566,13.9015 C3.5026,13.9015 1.9996,12.3995 1.9996,10.5455 C1.9996,9.1765 2.8206,7.9975 3.9956,7.4765 L4.0196,7.4895 C3.9126,7.1135 3.8366,6.7245 3.8366,6.3145 C3.8366,4.5055 4.9516,2.9615 6.5316,2.3205 C7.0316,2.1165 7.5766,1.9995 8.1506,1.9995 C10.0486,1.9995 11.6426,3.2335 12.2186,4.9375 C12.5626,4.5245 13.0746,4.2565 13.6536,4.2565 C14.6886,4.2565 15.5276,5.0955 15.5276,6.1305 C15.5276,6.2725 15.5026,6.4075 15.4706,6.5395 C13.2356,6.7215 11.4716,8.5715 11.4716,10.8545 C11.4716,12.4495 12.3416,13.8305 13.6236,14.5875 C13.4926,16.4275 11.9776,17.8845 10.1046,17.8845 L10.1046,17.8845 Z M17.4506,6.8255 C17.4936,6.5995 17.5276,6.3695 17.5276,6.1305 C17.5276,3.9935 15.7896,2.2565 13.6536,2.2565 C13.4376,2.2565 13.2236,2.2745 13.0136,2.3095 C12.8216,2.0745 12.6086,1.8615 12.3866,1.6575 C11.2526,0.6185 9.7576,-0.0005 8.1506,-0.0005 C4.6686,-0.0005 1.8366,2.8325 1.8366,6.3145 C1.8366,6.3765 1.8376,6.4415 1.8406,6.5045 C0.6906,7.5065 -0.0004,8.9725 -0.0004,10.5455 C-0.0004,13.3015 2.0926,15.5785 4.7726,15.8705 C5.0786,16.9365 5.7066,17.8585 6.5316,18.5575 C7.4976,19.3775 8.7396,19.8845 10.1046,19.8845 C12.8756,19.8845 15.1616,17.8365 15.5716,15.1785 C15.6566,15.1835 15.7356,15.2025 15.8216,15.2025 C18.2236,15.2025 20.1706,13.2555 20.1706,10.8545 C20.1706,9.0275 19.0436,7.4715 17.4506,6.8255 L17.4506,6.8255 Z" fill="currentColor"></path>
		</g>
    </g>
</svg>