<svg viewBox="0 0 24 24" xmlns="http://www.w3.org/2000/svg" xmlns:xlink="http://www.w3.org/1999/xlink">
    <g id="Dark" fill-rule="evenodd">
		<g transform="translate(2.000000, 2.000000)" fill="currentColor">
			<path d="M0,4.4373 L0,20.7693 L19.992,20.7693 L19.992,9.0753 L9.596,9.0753 L4.869,4.4373 L0,4.4373 Z M2,6.4373 L4.052,6.4373 L8.195,10.5023 L8.779,11.0753 L9.596,11.0753 L17.992,11.0753 L17.992,18.7703 L2,18.7703 L2,6.4373 Z"></path>
			<path d="M18.5899,4.6011 C18.4829,3.1111 17.4349,1.8881 16.0439,1.4931 C15.7719,1.4161 15.4929,1.3601 15.1989,1.3511 C14.9819,1.1301 14.7439,0.9351 14.4899,0.7651 C13.7549,0.2711 12.8859,0.0001 11.9719,0.0001 C11.0439,0.0001 10.1859,0.2851 9.4659,0.7651 C9.4419,0.7811 9.4209,0.8011 9.3969,0.8181 C8.9819,1.1061 8.6119,1.4531 8.3129,1.8601 C7.8889,2.4371 7.6149,3.1221 7.5019,3.8601 C7.4859,3.9691 7.4539,4.0731 7.4449,4.1851 L8.8849,5.5981 C8.9469,5.5301 9.0019,5.4581 9.0729,5.3981 L9.4319,5.0111 L9.4319,4.8241 L9.4319,4.7311 L9.4319,4.5391 C9.4319,4.3021 9.4749,4.0771 9.5359,3.8601 C9.6319,3.5171 9.7959,3.2071 10.0159,2.9391 C10.3029,2.5901 10.6749,2.3191 11.1069,2.1621 C11.3779,2.0631 11.6669,2.0001 11.9719,2.0001 C12.3739,2.0001 12.7599,2.0951 13.1069,2.2701 C13.4419,2.4391 13.7419,2.6821 13.9809,2.9921 L14.0439,3.0601 L14.4019,3.4431 L14.9769,3.3631 C15.0159,3.3581 15.0539,3.3501 15.0939,3.3501 C15.4559,3.3501 15.7839,3.4841 16.0439,3.7031 C16.3779,3.9871 16.5949,4.4161 16.5899,4.9221 L16.4969,5.7111 L17.1159,6.0261 C17.5859,6.2651 17.8789,6.7161 17.9279,7.2221 L19.9309,7.2221 C19.8899,6.1831 19.4039,5.2291 18.5899,4.6011"></path>
		</g>
		<g transform="translate(6.000000, 14.000000)" fill="currentColor">
			<rect x="1.66666667" y="0" width="1.66666667" height="5"></rect>
			<rect transform="translate(2.5, 2.5) rotate(-90) translate(-2.5, -2.5) " x="1.66666667" y="0" width="1.66666667" height="5"></rect>
		</g>
    </g>
</svg>