<svg viewBox="0 0 24 24" xmlns="http://www.w3.org/2000/svg" xmlns:xlink="http://www.w3.org/1999/xlink">
    <g id="Dark" stroke="none" stroke-width="1" fill="none" fill-rule="evenodd">
		<g transform="translate(2.1, 0.7) scale(1.18)">
			<g transform="translate(0.000000, 0.840800)">
				<path d="M2.917,6.7148 C2.431,6.2288 2.163,5.5828 2.163,4.8958 C2.163,4.2088 2.431,3.5638 2.917,3.0768 C3.403,2.5908 4.049,2.3228 4.736,2.3228 C5.424,2.3228 6.069,2.5908 6.556,3.0768 L9.476,5.9968 L11.006,4.4668 L8.086,1.5468 C7.191,0.6528 6.002,0.1588 4.736,0.1588 C3.471,0.1588 2.281,0.6528 1.388,1.5468 C0.493,2.4418 0,3.6308 0,4.8958 C0,6.1608 0.493,7.3508 1.388,8.2448 L4.308,11.1658 L5.838,9.6358 L2.917,6.7148 Z" fill="currentColor"></path>
			</g>
			<g transform="translate(5.000000, 5.840800)">
				<path d="M10.4551,3.917 L7.5341,0.996 L6.0051,2.526 L8.9251,5.446 C9.9281,6.449 9.9281,8.082 8.9261,9.085 C7.9221,10.088 6.2891,10.086 5.2871,9.085 L2.3661,6.164 L0.8361,7.694 L3.7571,10.615 C4.6501,11.508 5.8401,12 7.1051,12 C8.3721,12 9.5621,11.508 10.4551,10.615 C12.3021,8.768 12.3021,5.764 10.4551,3.917" fill="currentColor"></path>
			</g>
			<polygon fill="currentColor" points="4.2256 6.7549 11.0866 13.6169 12.6176 12.0869 5.7546 5.2259"></polygon>
		</g>
    </g>
</svg>