<svg viewBox="0 0 24 24" xmlns="http://www.w3.org/2000/svg" xmlns:xlink="http://www.w3.org/1999/xlink">
	<g id="Dark">
	  <polygon fill="currentColor" id="Shape" points="17 6 18.9064858 5.99999984 18.9064857 0 0 0 0 23.2314992 18.9064857 23.2314992 18.9064862 17.0799781 17.0000004 17.0799779 17.0000004 21 2.0000004 21 2 2 17 2"></polygon>
	  <path fill="currentColor" d="M16.7837894,14.5507076 C16.4200335,14.9104123 15.9821807,15.3060877 15.4702262,15.737726 L15.3355022,18.2938865 C15.3265206,18.3658276 15.2905941,18.4242799 15.2277226,18.4692431 L12.6410185,19.9800073 C12.6095829,19.9979926 12.5736564,20.0069853 12.5332389,20.0069853 C12.4793493,20.0069853 12.4277045,19.9867518 12.3783059,19.9462849 L11.9471876,19.5146388 C11.888807,19.4516905 11.8708441,19.3797501 11.8932978,19.2988161 L12.4658765,17.4373447 L10.5730034,15.5421465 L8.71380697,16.1154258 C8.70033457,16.119922 8.68012593,16.1221702 8.65318113,16.1221702 C8.59030987,16.1221702 8.53866519,16.1019368 8.4982481,16.0614699 L8.06712974,15.6298237 C7.99078629,15.5443935 7.979559,15.4567152 8.0334487,15.3667897 L9.54236693,12.7769125 C9.58727505,12.7139642 9.64565528,12.6779935 9.71750901,12.6690012 L12.2705264,12.5341126 C12.7016448,12.0215335 13.0968373,11.5831429 13.4560979,11.218933 C14.3003677,10.3781207 15.1042233,9.79809319 15.867663,9.47885754 C16.6310975,9.15961981 17.5988677,9 18.7709685,9 C18.8338397,9 18.8877285,9.02135753 18.9326379,9.06407249 C18.9775458,9.10678734 19,9.1573707 19,9.21582244 C19.0000006,10.3354174 18.8304716,11.3032425 18.4914161,12.1193275 C18.1523598,12.9354067 17.5831518,13.745868 16.7837894,14.5507076 Z M17.3106394,11.8271844 C17.3106394,11.5500093 17.213747,11.3144107 17.0199617,11.1203877 C16.8261762,10.9263637 16.5908669,10.8293546 16.3140291,10.8293546 C16.0371931,10.8293546 15.8018819,10.926366 15.6080963,11.1203877 C15.4143108,11.3144117 15.3174186,11.5500093 15.3174186,11.8271844 C15.3174186,12.1043596 15.4143112,12.3399582 15.6080963,12.5339812 C15.8018819,12.7280052 16.0371911,12.8250143 16.3140291,12.8250143 C16.5908649,12.8250143 16.8261762,12.7280029 17.0199617,12.5339812 C17.2137472,12.3399573 17.3106394,12.1043596 17.3106394,11.8271844 Z" id="Combined-Shape"></path>
	</g>
</svg>
