<svg xmlns="http://www.w3.org/2000/svg" xmlns:xlink="http://www.w3.org/1999/xlink" viewBox="0 0 24 24">
    <path fill="currentColor" d="M14.8,14.92H6.2a1,1,0,0,1-1-.95v-2.6a1,1,0,0,1,1-.95h8.6a1,1,0,0,1,.95.95V14A1,1,0,0,1,14.8,14.92Zm-8-1.5h7.5v-1.5H6.75Z"/>
    <path fill="currentColor" d="M14.8,20.17H6.2a1,1,0,0,1-1-1v-2.6a1,1,0,0,1,1-1h8.6a1,1,0,0,1,.95,1v2.6A1,1,0,0,1,14.8,20.17Zm-8-1.5h7.5v-1.5H6.75Z"/>
    <path fill="currentColor" d="M17.81,23.17H3.19a.94.94,0,0,1-.94-.94V4.61a.94.94,0,0,1,.94-.94H12a.75.75,0,0,1,0,1.5H3.75v16.5h13.5V10.42a.75.75,0,0,1,1.5,0V22.23A.94.94,0,0,1,17.81,23.17Z"/>
    <path fill="currentColor" d="M21.67,3.83a4.44,4.44,0,0,0-.21-.71,4.94,4.94,0,0,0-.35-.64,4,4,0,0,0-.46-.55,4.06,4.06,0,0,0-.55-.46,3.92,3.92,0,0,0-.64-.34,3.55,3.55,0,0,0-.7-.22A3.92,3.92,0,0,0,18,.83a.75.75,0,1,0,0,1.5,2.22,2.22,0,0,1,.45,0,2.13,2.13,0,0,1,.43.13,1.58,1.58,0,0,1,.38.21,2.16,2.16,0,0,1,.33.27,2.22,2.22,0,0,1,.28.33,1.79,1.79,0,0,1,.2.39,1.87,1.87,0,0,1,.13.42,2.3,2.3,0,0,1,.05.45A2.4,2.4,0,0,1,20.2,5a2.25,2.25,0,0,1-.13.42,2,2,0,0,1-.2.38,2.22,2.22,0,0,1-.28.33,2.22,2.22,0,0,1-.33.28,2,2,0,0,1-.38.2,2.16,2.16,0,0,1-.43.14,2.27,2.27,0,0,1-.9,0,2.16,2.16,0,0,1-.43-.14,2,2,0,0,1-.38-.2,2.22,2.22,0,0,1-.33-.28,2.22,2.22,0,0,1-.28-.33,2,2,0,0,1-.2-.38A2.25,2.25,0,0,1,15.8,5a1.25,1.25,0,0,1,0-.19l.15.27a.75.75,0,0,0,.65.37.69.69,0,0,0,.37-.1.74.74,0,0,0,.28-1L16.16,2.53v0l0-.06-.05-.05a.12.12,0,0,0,0,0L16,2.3l0,0,0,0-.07,0-.07,0,0,0h0l-.07,0h-.29l-.07,0-.07,0,0,0L13.3,3.31a.75.75,0,1,0,.75,1.3l.2-.12v.09a3.92,3.92,0,0,0,.08.76,4.33,4.33,0,0,0,.21.7,4.94,4.94,0,0,0,.35.64,4.06,4.06,0,0,0,.46.55,3.44,3.44,0,0,0,.55.46,4,4,0,0,0,.64.35,4.18,4.18,0,0,0,.71.22,4.05,4.05,0,0,0,1.5,0A4.18,4.18,0,0,0,19.46,8a4,4,0,0,0,.64-.35,3.44,3.44,0,0,0,.55-.46,3.44,3.44,0,0,0,.46-.55A3.92,3.92,0,0,0,21.45,6a3.55,3.55,0,0,0,.22-.7,3.92,3.92,0,0,0,.08-.76A3.74,3.74,0,0,0,21.67,3.83Z"/>
  </svg>