<svg xmlns="http://www.w3.org/2000/svg" xmlns:xlink="http://www.w3.org/1999/xlink" viewBox="0 0 24 24">

	<g id="Dark">
		<polygon fill="currentColor" points="19.7,22 3.7,22 3.7,2 20.7,2 20.7,0 1.7,0 1.7,24 21.7,24 21.7,14.4 19.7,14.4"/>
		<path fill="currentColor" d="M19.6,5.6l-1.4-1.4l-1.4,1.4L9,13.5l-0.3,0.3l-0.2,0.4L8,15.5l-1.4,4l4-1.4l1.3-0.5l0.4-0.2l0.3-0.3l7.8-7.8 l1.4-1.4l-1.4-1.4L19.6,5.6z M11.2,15.7l-1.3,0.5l0.5-1.3l5.1-5.1l0.8,0.8l0.1,0.1L11.2,15.7z M17.8,9.2L17.8,9.2l-0.9-0.8l1.3-1.3l0.8,0.8L17.8,9.2z"/>
	</g>
</svg>
