<svg xmlns="http://www.w3.org/2000/svg" xmlns:xlink="http://www.w3.org/1999/xlink" viewBox="0 0 24 24">
    <g id="Dark" fill="none">
        <g fill="currentColor" fill-rule="evenodd" transform="translate(2.000000, 1.000000)">
			<polygon points="0 -0.0004 0 21.9016 18.041 21.9016 18.041 17.9486 16.042 17.9486 16.042 19.9026 2 19.9026 2 2.0006 16.042 2.0006 16.042 3.9436 18.041 3.9436 18.041 -0.0004"></polygon>
			<path d="M19.2915,5.9765 L18.0415,5.9765 L16.0415,5.9765 L13.8755,5.9765 L5.0835,5.9765 L5.0835,15.9145 L13.8755,15.9145 L16.0415,15.9145 L18.0415,15.9145 L19.2915,15.9145 L20.0425,15.9145 L20.0425,5.9765 L19.2915,5.9765 Z M9.5435,7.9775 L15.5815,7.9775 L12.5625,10.1665 L9.5435,7.9775 Z M18.0415,8.6635 L18.0415,13.9145 L16.0415,13.9145 L7.0835,13.9145 L7.0835,8.6635 L12.5625,12.6365 L18.0415,8.6635 Z"></path>
        </g>
    </g>
</svg>