<svg viewBox="0 0 24 24" xmlns="http://www.w3.org/2000/svg" xmlns:xlink="http://www.w3.org/1999/xlink">
    <g id="Dark" fill-rule="evenodd">
		<g transform="translate(1.300000, -0.100000) scale(1.13)">
			<g transform="translate(6.000000, 0.486900)">
				<path d="M5.2422,8.1208 C3.6942,8.1208 2.4382,6.8658 2.4382,5.3168 C2.4382,3.7678 3.6942,2.5138 5.2422,2.5138 C6.7912,2.5138 8.0472,3.7678 8.0472,5.3168 C8.0472,6.8658 6.7912,8.1208 5.2422,8.1208 L5.2422,8.1208 Z M12.2502,11.9258 L8.8202,8.4958 C9.5742,7.6468 10.0472,6.5418 10.0472,5.3168 C10.0472,2.6638 7.8952,0.5138 5.2422,0.5138 C2.5902,0.5138 0.4382,2.6638 0.4382,5.3168 C0.4382,7.9708 2.5902,10.1208 5.2422,10.1208 C5.9392,10.1208 6.5972,9.9658 7.1952,9.6988 L10.8362,13.3398 L11.5432,14.0468 L12.9572,12.6328 L12.2502,11.9258 Z" fill="currentColor"></path>
			</g>
			<g transform="translate(0.000000, 10.486900)">
				<path d="M4.1758,5.6423 L5.3428,3.0733 L6.4828,5.6423 L4.1758,5.6423 Z M4.4448,0.2163 L-0.0002,9.9993 L2.1968,9.9993 L3.2678,7.6423 L7.3678,7.6423 L8.4088,9.9913 L10.6008,9.9993 L6.2688,0.2243 L4.4448,0.2163 Z" fill="currentColor"></path>
			</g>
		</g>
    </g>
</svg>