<svg xmlns="http://www.w3.org/2000/svg" xmlns:xlink="http://www.w3.org/1999/xlink" viewBox="0 0 24 24">
    <g id="Dark" fill="none">
		<g fill="currentColor" fill-rule="evenodd" transform="translate(2.000000, 1.000000)">
			<path transform="translate(0.000000, 0.602900)" d="M2,7.8138 C2,4.8268 4.43,2.3968 7.417,2.3968 C10.403,2.3968 12.833,4.8268 12.833,7.8138 C12.833,10.8008 10.403,13.2308 7.417,13.2308 C4.43,13.2308 2,10.8008 2,7.8138 L2,7.8138 Z M19.603,18.5858 L13.315,12.2978 C14.263,11.0518 14.833,9.5008 14.833,7.8138 C14.833,3.7178 11.513,0.3968 7.417,0.3968 C3.321,0.3968 0,3.7178 0,7.8138 C0,11.9098 3.321,15.2308 7.417,15.2308 C9.104,15.2308 10.654,14.6608 11.9,13.7118 L18.189,19.9998 L19.603,18.5858 Z"></path>
			<polygon points="7.7689 4.8807 4.2329 8.4167 7.7689 11.9527 9.1829 10.5387 7.0609 8.4167 9.1829 6.2947"></polygon>
		</g>
    </g>
</svg>