<svg viewBox="0 0 24 24" xmlns="http://www.w3.org/2000/svg" xmlns:xlink="http://www.w3.org/1999/xlink">
    <g id="Dark" fill-rule="evenodd">
		<g transform="translate(1.000000, 0.000000)">
			<polygon fill="currentColor" points="3.7764 3.7998 1.9994 3.7998 0.0004 3.7998 0.0004 5.7998 0.0004 15.7298 0.0004 20.8885498 0.0004 22.8885498 1.9994 22.8885498 13.7494 22.8885498 13.7494 20.8885498 1.9994 20.8885498 1.9994 15.7298 1.9994 5.7998 3.7764 5.7998 5.4414 5.7998 5.4414 3.7998"></polygon>
			<g transform="translate(3.000000, 0.046400)">
				<path d="M1.9703,12.8062 L2.2793,12.8062 C2.8793,12.8062 2.8793,13.0002 2.8793,13.2692 C2.8793,13.5372 2.8793,13.7312 2.2793,13.7312 L1.9703,13.7312 L1.9703,12.8062 Z M0.1463,11.0752 L0.1463,17.3102 L1.9703,17.3102 L1.9703,15.4622 L2.3093,15.4622 C3.7823,15.4622 4.7353,14.6012 4.7353,13.2692 C4.7353,11.9362 3.7823,11.0752 2.3093,11.0752 L0.1463,11.0752 Z" fill="currentColor"></path>
				<path d="M7.4703,12.8062 L7.5773,12.8062 C8.5523,12.8062 9.0263,13.2592 9.0263,14.1922 C9.0263,15.1252 8.5523,15.5782 7.5773,15.5782 L7.4703,15.5782 L7.4703,12.8062 Z M7.6243,11.0752 L5.6463,11.0752 L5.6463,17.3102 L7.6243,17.3102 C9.5723,17.3102 10.8803,16.0572 10.8803,14.1922 C10.8803,12.3272 9.5723,11.0752 7.6243,11.0752 L7.6243,11.0752 Z" fill="currentColor"></path>
				<polygon fill="currentColor" points="11.5944 17.3101 13.4194 17.3101 13.4194 15.4601 15.0154 15.4601 15.0154 13.7311 13.4194 13.7311 13.4194 12.8061 15.8594 12.8061 15.8594 11.0751 11.5944 11.0751"></polygon>
				<g transform="translate(4.000000, 0.000000)">
					<polyline fill="currentColor" points="2.3805 5.6773 2.3805 2.9533 12.1305 2.9533 12.1305 4.9353 12.1305 5.4463 14.1305 5.4463 14.1305 4.9353 14.1305 2.9533 14.1305 0.9533 12.1305 0.9533 2.3805 0.9533 0.3805 0.9533 0.3805 2.9533 0.3805 5.6773"></polyline>
				</g>
				<g transform="translate(4.000000, 3.000000)">
					<polyline fill="currentColor" points="12.1305 0.3159 12.1305 3.0399 2.3805 3.0399 2.3805 1.0579 2.3805 0.5469 0.3805 0.5469 0.3805 1.0579 0.3805 3.0399 0.3805 5.0399 2.3805 5.0399 12.1305 5.0399 14.1305 5.0399 14.1305 3.0399 14.1305 0.3159"></polyline>
				</g>
			</g>
		</g>
    </g>
</svg>