<svg xmlns="http://www.w3.org/2000/svg" xmlns:xlink="http://www.w3.org/1999/xlink" viewBox="0 0 24 24">
    <g id="Dark" fill="none">
		<g fill-rule="evenodd" transform="translate(2.000000, 1.000000)">
			<path fill="currentColor" d="M0,7.0113 L0,20.6783 L15.833,20.6783 L15.833,9.7573 L8.496,9.7573 L5.698,7.0113 L0,7.0113 Z M2,9.0123 L4.882,9.0123 L7.68,11.7573 L13.833,11.7573 L13.833,18.6793 L2,18.6793 L2,9.0123 Z"></path>
			<g transform="translate(7.000000, 0.678700)">
				<path fill="currentColor" d="M13.2803,7.6816 C13.2803,6.5876 12.7733,5.5786 11.9233,4.9226 C11.8163,3.4326 10.7683,2.2096 9.3763,1.8146 C9.1053,1.7376 8.8253,1.6806 8.5323,1.6726 C8.3143,1.4506 8.0763,1.2556 7.8233,1.0856 C7.0883,0.5926 6.2193,0.3216 5.3043,0.3216 C4.3773,0.3216 3.5183,0.6066 2.7993,1.0856 C2.7753,1.1026 2.7543,1.1226 2.7303,1.1396 C2.3153,1.4276 1.9443,1.7746 1.6453,2.1806 C1.2223,2.7576 0.9473,3.4426 0.8353,4.1806 C0.8183,4.2906 0.7873,4.3946 0.7783,4.5066 C0.6153,4.6756 0.4763,4.8616 0.3453,5.0526 C0.3313,5.0716 0.3163,5.0906 0.3013,5.1086 L1.7893,6.5686 C1.9243,6.2446 2.1273,5.9506 2.4063,5.7196 L2.7643,5.3316 L2.7643,5.1456 L2.7643,5.0526 L2.7643,4.8606 C2.7643,4.6236 2.8083,4.3986 2.8693,4.1806 C2.9653,3.8386 3.1293,3.5276 3.3493,3.2606 C3.6353,2.9116 4.0073,2.6406 4.4393,2.4826 C4.7103,2.3836 4.9993,2.3216 5.3043,2.3216 C5.7073,2.3216 6.0923,2.4166 6.4393,2.5916 C6.7753,2.7606 7.0743,3.0036 7.3133,3.3136 L7.3763,3.3806 L7.7343,3.7646 L8.3093,3.6846 C8.3483,3.6796 8.3863,3.6706 8.4263,3.6706 C8.7893,3.6706 9.1173,3.8056 9.3763,4.0246 C9.7113,4.3086 9.9283,4.7376 9.9233,5.2436 L9.8303,6.0326 L10.4493,6.3476 C10.9623,6.6086 11.2803,7.1196 11.2803,7.6816 C11.2803,8.1016 11.1063,8.4816 10.8353,8.7546 L10.8353,11.0106 C12.2493,10.5586 13.2803,9.2426 13.2803,7.6816"></path>
			</g>
		</g>
    </g>
</svg>