<svg xmlns="http://www.w3.org/2000/svg" xmlns:xlink="http://www.w3.org/1999/xlink" viewBox="0 0 24 24">
	<g id="Dark">
		<g transform="translate(-40.6, -28.5) scale(1.0476)">
			<path fill="currentColor" d="M56.432,44.75197 L56.432,49.1543 L43,49.1543 L43,40.0023 C43,37.7042008 44.1799155,35.6280026 46.0886965,34.426888 C45.7276701,33.8003871 45.5213,33.0761159 45.5213,32.305 C45.5213,29.931 47.4773,28 49.8803,28 C52.2843,28 54.2403,29.931 54.2403,32.305 C54.2403,33.1415985 53.9973921,33.9230584 53.5775713,34.5843476 C54.8098986,35.4396507 55.7059761,36.6732521 56.1393842,38.0714777 C57.7004189,38.3967485 58.888913,39.7926963 58.888913,41.4439614 C58.888913,42.1662464 58.611087,42.8885314 58.2217391,43.4441353 L61,46.2213721 L60.222087,47 L57.4446087,44.2219807 C57.1403853,44.4653382 56.8028491,44.6419585 56.432,44.75197 Z M54.0908423,38.2803754 C53.7055696,37.3431041 53.0110936,36.5375983 52.0955069,36.0111687 C51.4459181,36.3909071 50.6884214,36.609 49.8803,36.609 C49.0074749,36.609 48.193623,36.3543731 47.5110561,35.9163291 C45.971156,36.7103445 45,38.2664004 45,40.0023 L45,47.1543 L54.432,47.1543 L54.432,44.7345159 C53.0302517,44.2977193 52,42.9813722 52,41.4439614 C52,40.0342235 52.8662439,38.8105757 54.0908423,38.2803754 Z M49.8803,30 C48.5793,30 47.5213,31.034 47.5213,32.305 C47.5213,33.575 48.5793,34.609 49.8803,34.609 C51.1823,34.609 52.2403,33.575 52.2403,32.305 C52.2403,31.034 51.1823,30 49.8803,30 Z M53.1113043,41.4439614 L53.110913,41.4439614 C53.1060745,42.0788883 53.3561548,42.6892204 53.8051313,43.1382313 C54.2541077,43.5872423 54.8644519,43.8374009 55.4994348,43.8326667 C56.1345207,43.8375049 56.7450054,43.587405 57.1941287,43.1383943 C57.6432521,42.6893835 57.8934737,42.0789929 57.8887391,41.4439614 C57.8934737,40.8090337 57.6432933,40.1987426 57.1942434,39.7498052 C56.7451934,39.3008678 56.1348082,39.0508092 55.4998261,39.0556473 C54.8649115,39.0509145 54.2546277,39.3010196 53.8056628,39.7499454 C53.356698,40.1988713 53.1065711,40.809102 53.1113043,41.4439614 Z"></path>
		</g>
	</g>
</svg>
