<svg xmlns="http://www.w3.org/2000/svg" xmlns:xlink="http://www.w3.org/1999/xlink" viewBox="0 0 24 24">
	<g id="Dark">
	<polyline fill="currentColor" points="1,2.1 1,3.1 1,6.6 1,18.9 1,19.9 2,19.9 6.4,19.9 6.4,17.9 3,17.9 3,6.6 3,4.1 7,4.1 10.2,7.3 10.5,7.6 10.9,7.6 20.9,7.6 20.9,18.9 22.9,18.9 22.9,6.6 22.9,5.6 21.9,5.6 11.3,5.6 8.1,2.4 7.8,2.1 7.4,2.1 	"/>
	<path fill="currentColor" d="M16.4,17.7c0.5-0.7,0.8-1.6,0.8-2.6c0-2.6-2.1-4.7-4.7-4.7c-2.6,0-4.7,2.1-4.7,4.7s2.1,4.7,4.7,4.7c0.9,0,1.8-0.3,2.6-0.8l3.6,3.6l0.7,0.7l1.4-1.4l-0.7-0.7L16.4,17.7z M9.7,15.1c0-1.5,1.2-2.7,2.7-2.7c1.5,0,2.7,1.2,2.7,2.7c0,1.5-1.2,2.7-2.7,2.7C10.9,17.9,9.7,16.6,9.7,15.1z"/>
	</g>
</svg>
