<svg xmlns="http://www.w3.org/2000/svg" xmlns:xlink="http://www.w3.org/1999/xlink" viewBox="0 0 24 24">
    <g id="Dark" fill="none">
		<g fill="currentColor" fill-rule="evenodd" transform="translate(2.000000, 1.000000)">
			<path transform="translate(0.000000, 5.032700)" d="M6.4316,16 C4.7646,16 3.4096,14.644 3.4096,12.977 L3.3776,10.396 L3.3776,5.893 L5.3776,5.893 L5.4096,12.961 C5.4096,13.541 5.8686,14 6.4316,14 C7.0116,14 7.5206,13.521 7.5206,12.977 L7.5206,6.206 C7.5206,3.37 6.2316,2.987 4.9696,2.987 C4.2356,2.987 1.9996,2.987 1.9996,6.206 L1.9996,15.756 L-0.0004,15.756 L-0.0004,6.206 C-0.0004,2.938 1.8576,0.987 4.9696,0.987 C6.6686,0.987 9.5206,1.665 9.5206,6.206 L9.5206,12.977 C9.5206,14.615 8.1066,16 6.4316,16"></path>
			<g transform="translate(2.000000, 0.032700)">
				<path d="M12.2405,12.8679 C13.1895,11.6219 13.7595,10.0709 13.7595,8.3839 C13.7595,4.2879 10.4385,0.9669 6.3425,0.9669 C3.6965,0.9669 1.3865,2.3599 0.0755,4.4459 L2.6435,4.4459 C3.6115,3.5329 4.9095,2.9669 6.3425,2.9669 C9.3295,2.9669 11.7595,5.3969 11.7595,8.3839 C11.7595,10.1899 10.8685,11.7869 9.5065,12.7719 L9.5065,15.0649 C9.9715,14.8429 10.4205,14.5919 10.8265,14.2819 L17.1145,20.5699 L18.5285,19.1559 L12.2405,12.8679 Z"></path>
			</g>
		</g>
    </g>
</svg>