<svg xmlns="http://www.w3.org/2000/svg" xmlns:xlink="http://www.w3.org/1999/xlink"	viewBox="0 0 24 24">
<g id="Dark">
	<polygon fill="currentColor" points="21.2,0 2,0 2,24 21.2,24 21.2,20.3 19.2,20.3 19.2,22 4,22 4,2 19.2,2 19.2,12.9 21.2,12.9 	"/>
	<path fill="currentColor" d="M11.9,5.1c-2.7,0-4.8,2.2-4.8,4.8s2.2,4.8,4.8,4.8c0.7,0,1.4-0.2,2-0.4l3.6,3.6l0.7,0.7l1.4-1.4l-0.7-0.7
		l-3.4-3.4c0.8-0.8,1.2-2,1.2-3.2C16.7,7.2,14.5,5.1,11.9,5.1z M9.1,9.9c0-1.5,1.3-2.8,2.8-2.8s2.8,1.3,2.8,2.8s-1.3,2.8-2.8,2.8
		S9.1,11.4,9.1,9.9z"/>
</g>
</svg>
