<svg xmlns="http://www.w3.org/2000/svg" xmlns:xlink="http://www.w3.org/1999/xlink" viewBox="0 0 24 24">
    <g id="Dark" fill="none">
		<g fill="currentColor" fill-rule="evenodd" transform="translate(2.000000, 1.500000)">
			<path d="M12.355,7.6081 C10.806,7.6081 9.551,6.3531 9.551,4.8041 C9.551,3.2551 10.806,2.0001 12.355,2.0001 C13.904,2.0001 15.159,3.2551 15.159,4.8041 C15.159,6.3531 13.904,7.6081 12.355,7.6081 L12.355,7.6081 Z M19.362,11.4121 L15.932,7.9821 C16.687,7.1341 17.159,6.0291 17.159,4.8041 C17.159,2.1511 15.008,0.0001 12.355,0.0001 C9.702,0.0001 7.551,2.1511 7.551,4.8041 C7.551,7.4571 9.702,9.6081 12.355,9.6081 C13.052,9.6081 13.71,9.4531 14.307,9.1861 L17.948,12.8271 L18.655,13.5341 L20.069,12.1191 L19.362,11.4121 Z"></path>
			<path d="M5.4522,18.4823 L2.8282,15.8583 L5.4502,13.2363 L11.6002,13.2363 L13.0742,14.7103 L13.0742,18.5123 L5.4522,18.4823 Z M12.4352,11.2363 L12.4292,11.2363 L5.4522,11.2363 L5.0362,11.2363 L4.6222,11.2363 L4.3292,11.5293 L0.7072,15.1513 L0.5772,15.2813 L0.0002,15.8583 L0.5772,16.4353 L0.7072,16.5653 L4.3292,20.1883 L4.6202,20.4793 L5.0322,20.4803 L13.0742,20.5123 L14.0982,20.5163 L15.1022,20.5193 L15.1022,19.5163 L15.1022,15.0113 L15.1022,13.9093 L15.1022,13.9033 L13.0742,11.8763 L12.4352,11.2363 Z"></path>
			<path d="M6.8259,14.7198 C6.1359,14.7198 5.5769,15.2788 5.5769,15.9688 C5.5769,16.6588 6.1359,17.2178 6.8259,17.2178 C7.5159,17.2178 8.0749,16.6588 8.0749,15.9688 C8.0749,15.2788 7.5159,14.7198 6.8259,14.7198"></path>
		</g>
    </g>
</svg>