<?xml version="1.0" encoding="UTF-8" standalone="no"?>
<svg width="24px" height="24px" viewBox="0 0 24 24" version="1.1" xmlns="http://www.w3.org/2000/svg" xmlns:xlink="http://www.w3.org/1999/xlink">
    <!-- Generator: Sketch 3.6.1 (26313) - http://www.bohemiancoding.com/sketch -->
    <title>finish</title>
    <desc>Created with Sketch.</desc>
    <defs></defs>
    <g id="Dark" stroke="none" stroke-width="1" fill="none" fill-rule="evenodd">
        <g id="finish" fill="currentColor">
            <path d="M7,23 L16.9209038,23 L17.9209038,23 L17.9209038,21 L16.9209038,21 L7,21 L6,21 L6,23 L7,23 L7,23 Z" id="Line-Copy"></path>
            <path d="M11,16.4751344 L11,18.1286184 L11,19.1286184 L13,19.1286184 L13,18.1286184 L13,16.4751344 L13,15.4751344 L11,15.4751344 L11,16.4751344 L11,16.4751344 Z" id="Line-Copy-2"></path>
            <path d="M5.39407506,2.11987305 L5.39407506,9.61212945 C5.39407506,13.323389 8.40264536,16.3319593 12.1139049,16.3319593 C15.8251645,16.3319593 18.8337348,13.323389 18.8337348,9.61212945 L18.8337346,2.11987302 L18.8337346,1.11987305 L17.8337346,1.11987305 L6.39407506,1.11987305 L5.39407506,1.11987305 L5.39407506,2.11987305 L5.39407506,2.11987305 L5.39407506,2.11987305 Z M7.39407506,2.11987305 L6.39407506,3.11987305 L17.8337346,3.11987305 L16.8337346,2.11987307 L16.8337348,9.61212948 C16.8337348,12.2188195 14.720595,14.3319593 12.1139049,14.3319593 C9.50721486,14.3319593 7.39407506,12.2188195 7.39407506,9.61212945 L7.39407506,2.11987305 L7.39407506,2.11987305 L7.39407506,2.11987305 Z" id="Oval-4-Copy"></path>
            <path d="M16,21 C14.3431458,21 13,19.6568542 13,18 L11,18 C11,20.7614237 13.2385763,23 16,23 L16,21 L16,21 Z" id="Oval-4"></path>
            <path d="M8,23 C10.7614237,23 13,20.7614237 13,18 L11,18 C11,19.6568542 9.65685425,21 8,21 L8,23 L8,23 Z" id="Oval-4-Copy-2"></path>
            <path d="M6.21105594,3.60862766 L3.78280785,3.60862766 C3.84711788,3.61056702 3.84711788,3.61056702 3.81188917,3.60866152 C3.42354965,3.59069313 2.97177248,3.66119343 2.51553844,3.90570086 C1.56237437,4.41652574 1.07350362,5.46992472 1.21883161,6.96233555 C1.22370067,7.00985107 1.22370067,7.00985107 1.22949379,7.05708837 C1.39976141,8.39119175 2.36593674,9.64775307 3.85513148,10.8869037 C4.38869904,11.3308823 4.95618737,11.7417057 5.52343786,12.1114536 C5.86520375,12.3342251 6.13427686,12.4957549 6.29556973,12.5863515 L7.27501917,10.8425973 C7.14999444,10.7723721 6.91801176,10.6331085 6.61556306,10.4359649 C6.10912256,10.1058544 5.60291991,9.73939773 5.13437588,9.34952485 C4.00375427,8.40874091 3.30169177,7.49567209 3.21340147,6.80388818 C3.21121447,6.7860514 3.21121447,6.7860514 3.20941605,6.7684964 C3.13842986,6.03952085 3.261069,5.77526297 3.46027048,5.66850583 C3.54858168,5.62117761 3.6600854,5.60377734 3.7194485,5.60652406 C3.71254177,5.60617086 3.71254177,5.60617086 3.69625841,5.60487521 L6.21105594,5.60862766 L6.21105594,3.60862766 L6.21105594,3.60862766 Z" id="Path-30-Copy"></path>
            <path d="M18.0167539,5.65366439 L20.445002,5.65366439 C20.5152681,5.6512076 20.5152681,5.6512076 20.5083613,5.6515608 C20.5677244,5.64881408 20.6792281,5.66621435 20.7675393,5.71354257 C20.9667408,5.82029971 21.08938,6.08455759 21.0183938,6.81353314 C21.0165954,6.83108814 21.0165954,6.83108814 21.0144084,6.84892492 C20.9261181,7.54070882 20.2240556,8.45377764 19.0934339,9.39456159 C18.6248899,9.78443447 18.1186873,10.1508911 17.6122468,10.4810016 C17.3097981,10.6781452 17.0778154,10.8174089 16.9527907,10.887634 L17.9322401,12.6313882 C18.093533,12.5407916 18.3626061,12.3792619 18.704372,12.1564904 C19.2716225,11.7867424 19.8391108,11.375919 20.3726783,10.9319405 C21.8618731,9.6927898 22.8280484,8.43622849 22.998316,7.10212511 C23.0041092,7.0548878 23.0041092,7.0548878 23.0089782,7.00737229 C23.1543062,5.51496145 22.6654355,4.46156248 21.7122714,3.9507376 C21.2560373,3.70623016 20.8042602,3.63572987 20.4159207,3.65369826 C20.3806919,3.65560376 20.3806919,3.65560376 20.3584525,3.65741684 L18.0167539,3.65366439 L18.0167539,5.65366439 L18.0167539,5.65366439 Z" id="Path-30"></path>
        </g>
    </g>
</svg>