<svg xmlns="http://www.w3.org/2000/svg" xmlns:xlink="http://www.w3.org/1999/xlink" viewBox="0 0 24 24">
<g id="Dark">
	<polyline fill="none" stroke="currentColor" stroke-width="2" stroke-miterlimit="10" points="16.875,10.731 20.506,13.089 22.911,9.386"/>
	<path fill="none" stroke="currentColor" stroke-width="2" stroke-miterlimit="10" d="M8.792,20.22 c0.17,0.073,0.343,0.14,0.518,0.202c0.847,0.297,1.755,0.458,2.701,0.458c3.05,0,5.716-1.678,7.156-4.177 M10.134,4.21 C6.459,5.077,3.72,8.431,3.72,12.437c0,0.913,0.142,1.792,0.405,2.616c0.184,0.575,0.427,1.123,0.721,1.636 M20.302,12.437 c0-3.038-1.576-5.702-3.94-7.189"/>
	<path fill="currentColor" d="M16.816,3.692c0.137,0.402,0.211,0.832,0.211,1.281c0,2.194-1.781,3.972-3.978,3.972 c-2.197,0-3.978-1.778-3.978-3.972S10.852,1,13.049,1c1.141,0,2.169,0.48,2.895,1.248l-2.701,2.814L12.192,3.44l-1.345,0.923 l1.648,2.395l0.566,0.823l0.694-0.719L16.816,3.692z"/>
	<path fill="currentColor" d="M9.744,17.049c0.137,0.402,0.211,0.832,0.211,1.281c0,2.194-1.781,3.972-3.978,3.972S2,20.523,2,18.329
				s1.781-3.972,3.978-3.972c1.141,0,2.169,0.48,2.895,1.248l-2.701,2.814L5.12,16.797L3.775,17.72l1.648,2.395l0.566,0.823
				l0.694-0.719L9.744,17.049z"/>
</g>
</svg>
