<!-- DUPLICATE: fill_form.svg -->
<svg viewBox="0 0 24 24" xmlns="http://www.w3.org/2000/svg" xmlns:xlink="http://www.w3.org/1999/xlink">
	<g id="Dark" fill-rule="evenodd">
		<g transform="translate(2.1, 1) scale(1.09)" fill="currentColor">
			<polygon points="3.2517 10.1209 -0.0003 10.1209 -0.0003 18.1209 3.2517 18.1209 6.2977 18.1209 7.3187 16.1209 3.2517 16.1209 1.9997 16.1209 1.9997 12.1209 3.2517 12.1209 7.9747 12.1209 9.1337 10.1209"></polygon>
			<polygon points="0 0.0004 0 7.9994 3.252 7.9994 10.49 7.9994 11.649 5.9994 3.252 5.9994 2 5.9994 2 2.0004 3.252 2.0004 10.504 2.0004 13.433 2.0004 13.433 0.0004"></polygon>
			<path d="M14.5053,3.7309 L14.3493,3.9999 L13.1913,5.9999 L12.0333,7.9999 L10.8743,9.9999 L9.7163,11.9999 L8.9433,13.3359 L8.7153,13.7309 L8.6953,13.9999 L8.6813,14.1849 L8.5753,15.5549 L8.2523,19.7499 L11.7093,17.3509 L12.8593,16.5539 L13.2263,16.2989 L13.4493,15.9129 L14.5573,13.9999 L15.7163,11.9999 L16.8743,9.9999 L17.4563,9.0649 L18.0733,7.9999 L18.4283,7.3179 L18.9973,6.3329 L19.1903,5.9999 L20.0003,4.6019 L18.2693,3.5989 L18.0003,3.4439 L17.2383,3.0029 L15.5083,1.9999 L14.5053,3.7309 Z M16.1533,5.9999 L15.6663,5.7179 L16.2363,4.7329 L17.2673,5.3299 L16.8793,5.9999 L16.6973,6.3149 L16.1533,5.9999 Z M10.6743,14.3379 L10.8703,13.9999 L12.0283,11.9999 L13.1873,9.9999 L14.3453,7.9999 L14.6633,7.4489 L15.6163,7.9999 L15.6943,8.0449 L14.5623,9.9999 L13.4043,11.9999 L12.2463,13.9999 L11.7193,14.9109 L10.5683,15.7079 L10.6743,14.3379 Z"></path>
			<polygon points="3.0647 5.0041 12.1097 5.0041 13.2247 2.9961 3.0647 2.9961"></polygon>
		</g>
	</g>
</svg>