<svg xmlns="http://www.w3.org/2000/svg" xmlns:xlink="http://www.w3.org/1999/xlink" viewBox="0 0 24 24">
	<g id="Dark">
		<path fill="currentColor" d="M20.9,4.6l1.9-1.6l-1.3-1.5l-2.1,1.8c-1.8-1.2-4.4-2-7.4-2C6.4,1.2,2,4,2,7.6s4.4,6.3,10,6.3c3.1,0,5.9-0.9,7.7-2.3c0.2,0.3,0.3,0.6,0.3,0.9c0,1.8-3.3,3.8-8,3.8c-4.7,0-8-2-8-3.8H2c0,3.2,4.4,5.8,10,5.8c3.1,0,5.8-0.8,7.7-2c0.2,0.3,0.4,0.7,0.4,1c0,1.8-3.3,3.8-8,3.8c-4.7,0-8-2-8-3.8H2c0,3.2,4.4,5.8,10,5.8c5.6,0,10-2.5,10-5.8c0-0.8-0.2-1.5-0.7-2.2l-0.9,0.6c1-0.9,1.6-2,1.6-3.2c0-0.8-0.2-1.5-0.7-2.2l-0.6,0.4c0.9-0.9,1.3-2,1.3-3.2C22.1,6.5,21.6,5.5,20.9,4.6z M12,11.9c-4.4,0-8-2-8-4.3s3.7-4.3,8-4.3c4.4,0,8,2,8,4.3S16.4,11.9,12,11.9z"/>
	</g>
</svg>

