<svg viewBox="0 0 24 24" xmlns="http://www.w3.org/2000/svg" xmlns:xlink="http://www.w3.org/1999/xlink">
    <g id="Dark">
		<g transform="translate(1.000000, 2.000000)" fill="currentColor" fill-rule="evenodd">
			<path d="M0,20.9449 L21.758,20.9449 L21.758,-0.0001 L0,-0.0001 L0,20.9449 Z M2,18.9449 L19.758,18.9449 L19.758,1.9999 L2,1.9999 L2,18.9449 Z"></path>
			<polygon points="1.649 8.7859 20.355 8.7859 20.355 6.7859 1.649 6.7859"></polygon>
			<polygon points="3.215 5.3589 13.306 5.3589 13.306 3.3589 3.215 3.3589"></polygon>
			<polygon points="13.3994 17.2114 12.1124 15.9244 14.1964 13.8424 12.1124 11.7594 13.3994 10.4724 16.7694 13.8424"></polygon>
			<polygon points="8.3581 10.4724 9.6451 11.7594 7.5611 13.8414 9.6451 15.9244 8.3581 17.2114 4.9881 13.8414"></polygon>
		</g>
    </g>
</svg>