<svg xmlns="http://www.w3.org/2000/svg" xmlns:xlink="http://www.w3.org/1999/xlink" viewBox="0 0 24 24">
    <g id="Dark" fill="none" fill-rule="evenodd">
		<g transform="translate(2.000000, 2.000000)">
			<g transform="translate(0.000000, 0.372500)">
				<path d="M9.6862,0.6275 C4.3362,0.6275 0.0002,4.9645 0.0002,10.3135 C0.0002,15.6635 4.3362,19.9995 9.6862,19.9995 C15.0362,19.9995 19.3722,15.6635 19.3722,10.3135 C19.3722,4.9645 15.0362,0.6275 9.6862,0.6275 M9.6862,2.6275 C13.9242,2.6275 17.3722,6.0755 17.3722,10.3135 C17.3722,14.5515 13.9242,17.9995 9.6862,17.9995 C5.4482,17.9995 2.0002,14.5515 2.0002,10.3135 C2.0002,6.0755 5.4482,2.6275 9.6862,2.6275" fill="currentColor"><mask><polygon points="0.0002 0.628 19.372 0.628 19.372 19.9995 0.0002 19.9995 0.0002 0.628"></polygon></mask></path>
			</g>
			<path d="M9.0062,19.8813 L8.2642,18.0243 C11.2822,16.8173 13.2332,13.9373 13.2332,10.6863 C13.2332,7.4353 11.2822,4.5553 8.2642,3.3493 L9.0062,1.4913 C12.7882,3.0033 15.2332,6.6113 15.2332,10.6863 C15.2332,14.7593 12.7882,18.3683 9.0062,19.8813" fill="currentColor"></path>
			<path d="M10.3158,19.8813 C6.5338,18.3683 4.0888,14.7593 4.0888,10.6863 C4.0888,6.6113 6.5338,3.0033 10.3158,1.4913 L11.0578,3.3493 C8.0398,4.5553 6.0888,7.4353 6.0888,10.6863 C6.0888,13.9373 8.0398,16.8173 11.0578,18.0243 L10.3158,19.8813 Z" fill="currentColor"></path>
			<polygon fill="currentColor" points="8.686 19.2485 10.686 19.2485 10.686 2.4985 8.686 2.4985"><mask><polygon points="0 20.3725 19.372 20.3725 19.372 1.0005 0 1.0005"></polygon></mask></polygon>
			<polygon fill="currentColor" points="1.135 11.6855 18.916 11.6855 18.916 9.6855 1.135 9.6855"><mask><polygon points="0 20.3725 19.372 20.3725 19.372 1.0005 0 1.0005"></polygon></mask></polygon>
		</g>
    </g>
</svg>