<svg viewBox="0 0 24 24" xmlns="http://www.w3.org/2000/svg" xmlns:xlink="http://www.w3.org/1999/xlink">
    <g id="Dark" fill-rule="evenodd">
		<g transform="translate(0.6, 2) scale(1.09)" fill="currentColor">
			<path d="M10.4949,0.0004 L8.9429,2.6874 L7.7889,4.6874 L6.6829,6.6034 L5.5279,8.6034 L-0.0001,18.1764 L20.9899,18.1764 L10.4949,0.0004 Z M10.4949,4.0004 L17.5259,16.1774 L3.4649,16.1774 L10.4949,4.0004 Z"></path>
			<polygon points="0.5355 2.6878 0.5355 4.6878 5.7865 4.6878 6.9415 2.6878"></polygon>
			<polygon points="0.5355 6.6037 0.5355 8.6037 3.5265 8.6037 4.6805 6.6037"></polygon>
			<polygon points="9.602 11.3948 11.602 11.3948 11.602 7.7288 9.602 7.7288"></polygon>
			<path d="M10.6017,12.6531 C10.0537,12.6531 9.6097,13.0971 9.6097,13.6451 C9.6097,14.1921 10.0537,14.6371 10.6017,14.6371 C11.1497,14.6371 11.5937,14.1921 11.5937,13.6451 C11.5937,13.0971 11.1497,12.6531 10.6017,12.6531"></path>
		</g>
    </g>
</svg>