<svg viewBox="0 0 24 24" xmlns="http://www.w3.org/2000/svg" xmlns:xlink="http://www.w3.org/1999/xlink">
    <g id="Dark" fill-rule="evenodd">
		<g transform="translate(1.000000, 1.000000)" fill="currentColor">
			<polygon points="8.2503 0.0004 8.2503 1.9984 19.9543 1.9984 19.9543 16.7074 21.9993 16.7074 21.9993 0.0004"></polygon>
			<polygon points="11.7504 3.667 1.9994 3.667 0.0004 3.667 0.0004 5.667 0.0004 15.597 0.0004 19.914 0.0004 21.914 1.9994 21.914 13.7504 21.914 13.7504 19.914 1.9994 19.914 1.9994 15.597 1.9994 5.667 11.7504 5.667 11.7504 7.649 11.7504 8.159 13.7504 8.159 13.7504 7.649 13.7504 5.667 13.7504 3.667"></polygon>
			<g transform="translate(3.000000, 10.913600)">
				<path d="M1.9703,1.8059 L2.2793,1.8059 C2.8793,1.8059 2.8793,1.9999 2.8793,2.2689 C2.8793,2.5369 2.8793,2.7309 2.2793,2.7309 L1.9703,2.7309 L1.9703,1.8059 Z M0.1463,0.0749 L0.1463,6.3099 L1.9703,6.3099 L1.9703,4.4619 L2.3093,4.4619 C3.7823,4.4619 4.7353,3.6009 4.7353,2.2689 C4.7353,0.9359 3.7823,0.0749 2.3093,0.0749 L0.1463,0.0749 Z"></path>
				<path d="M7.4703,1.8059 L7.5773,1.8059 C8.5523,1.8059 9.0263,2.2589 9.0263,3.1919 C9.0263,4.1249 8.5523,4.5779 7.5773,4.5779 L7.4703,4.5779 L7.4703,1.8059 Z M7.6243,0.0749 L5.6463,0.0749 L5.6463,6.3099 L7.6243,6.3099 C9.5723,6.3099 10.8803,5.0569 10.8803,3.1919 C10.8803,1.3269 9.5723,0.0749 7.6243,0.0749 L7.6243,0.0749 Z"></path>
				<polygon points="11.5944 6.3098 13.4194 6.3098 13.4194 4.4598 15.0154 4.4598 15.0154 2.7308 13.4194 2.7308 13.4194 1.8058 15.8594 1.8058 15.8594 0.0748 11.5944 0.0748"></polygon>
			</g>
		</g>
    </g>
</svg>