<svg xmlns="http://www.w3.org/2000/svg" xmlns:xlink="http://www.w3.org/1999/xlink" viewBox="0 0 24 24">
    <g id="Dark" fill="none">
		<g fill="currentColor" fill-rule="evenodd" transform="translate(2.000000, 0.000000)">
			<path transform="translate(2.000000, 0.154300)" d="M4.8799,2.8457 C3.5779,2.8457 2.5199,3.8787 2.5199,5.1497 C2.5199,6.4197 3.5779,7.4537 4.8799,7.4537 C6.1809,7.4537 7.2389,6.4197 7.2389,5.1497 C7.2389,3.8787 6.1809,2.8457 4.8799,2.8457 M4.8799,9.4537 C2.4759,9.4537 0.5199,7.5237 0.5199,5.1497 C0.5199,2.7767 2.4759,0.8457 4.8799,0.8457 C7.2829,0.8457 9.2389,2.7767 9.2389,5.1497 C9.2389,7.5237 7.2829,9.4537 4.8799,9.4537"></path>
			<polygon points="7.048 14.0893 20.086 14.0893 20.086 12.1203 7.048 12.1203"></polygon>
			<polygon points="7.048 18.0893 20.086 18.0893 20.086 16.1203 7.048 16.1203"></polygon>
			<polygon points="7.048 22.1543 20.086 22.1543 20.086 20.1853 7.048 20.1853"></polygon>
			<path d="M2,20.1543 L2,13.0023 C2,11.1033 3.16,9.4203 4.956,8.7133 L4.224,6.8513 C1.658,7.8623 0,10.2763 0,13.0023 L0,22.1543 L5.017,22.1543 L5.017,20.1543 L2,20.1543 Z"></path>
			<polygon points="7.048 22.1543 13.43 22.1543 13.43 20.1853 7.048 20.1853"></polygon>
			<polygon points="11.431 18.0893 13.431 18.0893 13.431 16.1203 11.431 16.1203"></polygon>
			<path d="M11.4307,13.0019 L11.4307,14.0899 L13.4307,14.0899 L13.4307,13.0019 C13.4307,12.7049 13.4097,12.4109 13.3707,12.1209 L11.3337,12.1209 C11.3907,12.4089 11.4307,12.7019 11.4307,13.0019"></path>
			<polygon points="20.0862 10.1677 17.8962 10.1677 13.4582 5.1677 12.1102 5.1677 12.1102 3.1677 14.3572 3.1677 18.7942 8.1677 20.0862 8.1677"></polygon>
			<polygon points="14.3011 10.1677 12.1111 10.1677 12.1111 8.1677 13.4031 8.1677 17.8401 3.1677 20.0861 3.1677 20.0861 5.1677 18.7381 5.1677"></polygon>
		</g>
    </g>
</svg>