<svg xmlns="http://www.w3.org/2000/svg" xmlns:xlink="http://www.w3.org/1999/xlink" viewBox="0 0 24 24">
    <g id="Dark" fill="none" >
        <g fill="currentColor" fill-rule="evenodd" transform="translate(2.000000, 3.000000)">
			<path d="M15.9894,0.0002 L14.9864,1.7312 L14.8304,2.0002 L13.6724,4.0002 L12.5134,5.9992 L11.3564,8.0002 L10.1984,10.0002 L9.4244,11.3352 L9.1974,11.7312 L9.1764,12.0002 L9.1624,12.1852 L9.0554,13.5552 L8.7324,17.7502 L12.1894,15.3502 L13.3394,14.5542 L13.7074,14.2992 L13.9314,13.9132 L15.0394,12.0002 L16.1964,10.0002 L17.3544,8.0002 L17.9374,7.0652 L18.5534,5.9992 L18.9094,5.3172 L19.4774,4.3332 L19.6714,4.0002 L20.4814,2.6022 L18.7494,1.5982 L18.4804,1.4442 L17.7204,1.0032 L15.9894,0.0002 Z M16.6334,4.0002 L16.1474,3.7182 L16.7164,2.7322 L17.7484,3.3302 L17.3604,4.0002 L17.1784,4.3152 L16.6334,4.0002 Z M11.1544,12.3382 L11.3504,12.0002 L12.5094,10.0002 L13.6674,8.0002 L14.8254,5.9992 L15.1454,5.4492 L16.0974,5.9992 L16.1744,6.0442 L15.0434,8.0002 L13.8854,10.0002 L12.7274,12.0002 L12.2004,12.9112 L11.0504,13.7082 L11.1544,12.3382 Z"></path>
			<polygon points="0 14.0348 0 16.0348 7.042 16.0348 7.208 14.0348"></polygon>
			<polygon points="0.6579 7.5557 5.1359 12.0337 6.5509 10.6197 2.0719 6.1407"></polygon>
			<polygon points="0.6579 10.6202 2.0719 12.0342 6.5509 7.5562 5.1359 6.1412"></polygon>
        </g>
    </g>
</svg>