<svg xmlns="http://www.w3.org/2000/svg" xmlns:xlink="http://www.w3.org/1999/xlink" viewBox="0 0 24 24">
	<g id="Dark">
		<path fill="currentColor" d="M19.2,12.6V10h3.3V1.5H14v3.3H9.7C9.5,2.9,7.9,1.5,6,1.5c-2.1,0-3.8,1.7-3.8,3.8S3.8,9.1,6,9.1
			c1.6,0,3-1,3.6-2.5H14V10h3.3v2.6c-2.4,0.4-4.2,2.5-4.3,5H9.5l-3.1-6.3L0.6,22.8h11.5l-1.7-3.4h3c0.7,2,2.6,3.4,4.9,3.4
			c2.9,0,5.2-2.3,5.2-5.2C23.5,15.1,21.7,13,19.2,12.6z M15.9,3.3h4.8v4.8h-4.8V3.3z M3.6,21l2.8-5.5L9.1,21H3.6z M18.3,21
			c-1.8,0-3.3-1.5-3.3-3.3c0-1.8,1.5-3.3,3.3-3.3c1.8,0,3.3,1.5,3.3,3.3C21.6,19.5,20.1,21,18.3,21z"/>
	</g>
</svg>
