<svg xmlns="http://www.w3.org/2000/svg" xmlns:xlink="http://www.w3.org/1999/xlink" viewBox="0 0 24 24">
    <g id="Dark" fill="none">
        <g fill="currentColor" fill-rule="evenodd" transform="translate(2.000000, 1.000000)">
			<polygon points="2.988 6.0418 10.92 6.0418 10.92 4.0418 2.988 4.0418"></polygon>
			<polygon points="12.01 6.0418 14.01 6.0418 14.01 4.0418 12.01 4.0418"></polygon>
			<g transform="translate(0.000000, 0.889800)">
				<path d="M6.1085,11.2113 C6.2185,11.0343 6.3195,10.8523 6.4475,10.6853 C6.5455,10.1653 6.7255,9.6793 6.9385,9.2113 L2.9885,9.2113 L2.9885,11.2113 L6.1085,11.2113 Z"></path>
				<path d="M6.3694,18.0886 L2.0004,18.0886 L2.0004,14.1756 L5.1934,14.1756 C5.1944,14.1446 5.1984,14.1136 5.2004,14.0826 C5.2414,13.4206 5.3824,12.7806 5.6224,12.1756 C5.6344,12.1446 5.6494,12.1136 5.6624,12.0826 L2.0004,12.0826 L2.0004,8.1696 L7.5354,8.1696 C7.5484,8.1516 7.5614,8.1346 7.5744,8.1166 C8.1484,7.3156 8.8844,6.6456 9.7484,6.1696 C9.7844,6.1496 9.8244,6.1356 9.8604,6.1166 L2.0004,6.1166 L2.0004,2.1106 L14.9474,2.1106 L14.9474,5.6926 C15.3284,5.8196 15.6984,5.9746 16.0484,6.1696 C16.3634,6.3446 16.6634,6.5476 16.9474,6.7756 L16.9474,6.1696 L16.9474,0.1106 L0.0004,0.1106 L0.0004,6.1696 L0.0004,8.1166 L0.0004,12.0826 L0.0004,14.1756 L0.0004,20.0886 L8.7424,20.0886 C7.7844,19.6326 6.9794,18.9316 6.3694,18.0886"></path>
				<path d="M2.9883,15.1241 L2.9883,17.1241 L5.7853,17.1241 C5.4863,16.5001 5.2953,15.8251 5.2183,15.1241 L2.9883,15.1241 Z"></path>
				<path d="M17.404,16.2188 L16.948,16.1888 L16.334,16.1478 L16.212,17.0718 C16.066,18.1708 15.12,18.9998 14.01,18.9998 C13.291,18.9998 12.635,18.6458 12.224,18.0888 C12.069,17.8778 11.946,17.6398 11.873,17.3778 L11.698,16.7548 L11.058,16.6578 C11.011,16.6508 10.967,16.6348 10.92,16.6238 C10.136,16.4528 9.516,15.8688 9.28,15.1238 C9.213,14.9138 9.17,14.6938 9.17,14.4648 C9.17,14.3668 9.189,14.2718 9.202,14.1758 C9.206,14.1448 9.207,14.1128 9.212,14.0828 C9.302,13.5648 9.565,13.0918 9.977,12.7498 L10.336,12.3628 L10.336,12.1758 L10.336,12.0828 L10.336,11.8908 C10.336,11.6538 10.379,11.4288 10.44,11.2118 C10.536,10.8688 10.7,10.5588 10.92,10.2908 C11.206,9.9418 11.579,9.6708 12.01,9.5138 C12.282,9.4148 12.571,9.3518 12.876,9.3518 C13.278,9.3518 13.663,9.4468 14.01,9.6218 C14.346,9.7908 14.645,10.0338 14.884,10.3438 L14.948,10.4118 L15.305,10.7948 L15.881,10.7148 C15.92,10.7098 15.958,10.7008 15.998,10.7008 C16.36,10.7008 16.688,10.8358 16.948,11.0548 C17.282,11.3388 17.499,11.7678 17.494,12.2738 L17.401,13.0628 L18.02,13.3778 C18.533,13.6388 18.851,14.1498 18.851,14.7118 C18.851,15.5418 18.176,16.2168 17.404,16.2188 M19.494,11.9528 C19.387,10.4628 18.339,9.2398 16.948,8.8448 C16.676,8.7678 16.397,8.7118 16.103,8.7028 C15.886,8.4808 15.647,8.2868 15.394,8.1168 C14.659,7.6228 13.79,7.3518 12.876,7.3518 C11.948,7.3518 11.09,7.6368 10.37,8.1168 C10.346,8.1328 10.325,8.1528 10.301,8.1698 C9.886,8.4578 9.516,8.8048 9.217,9.2118 C8.793,9.7878 8.519,10.4728 8.406,11.2118 C8.39,11.3208 8.358,11.4248 8.349,11.5368 C8.187,11.7058 8.047,11.8918 7.916,12.0828 C7.894,12.1148 7.865,12.1428 7.843,12.1758 C7.476,12.7438 7.269,13.3988 7.206,14.0828 C7.204,14.1138 7.2,14.1448 7.197,14.1758 C7.191,14.2728 7.17,14.3668 7.17,14.4648 C7.17,14.6888 7.19,14.9088 7.224,15.1238 C7.345,15.8708 7.671,16.5548 8.138,17.1238 C8.453,17.5078 8.833,17.8338 9.263,18.0888 C9.544,18.2548 9.839,18.4008 10.157,18.4988 C10.441,19.1328 10.881,19.6708 11.413,20.0888 C12.14,20.6588 13.044,20.9998 14.01,20.9998 C14.984,20.9998 15.885,20.6568 16.608,20.0888 C16.724,19.9968 16.841,19.9058 16.948,19.8018 C17.415,19.3488 17.781,18.7878 18,18.1558 C19.621,17.8488 20.851,16.4208 20.851,14.7118 C20.851,13.6178 20.344,12.6098 19.494,11.9528"></path>
			</g>
        </g>
    </g>
</svg>