<svg viewBox="0 0 24 24" xmlns="http://www.w3.org/2000/svg" xmlns:xlink="http://www.w3.org/1999/xlink">
    <g id="Dark" fill-rule="evenodd">
		<g transform="translate(1.000000, 2.000000)" fill="currentColor">
			<polygon points="7.3523 11.5276 5.3523 11.5276 5.3523 15.4666 9.2773 15.4666 9.2773 13.4666 7.3523 13.4666"></polygon>
			<polygon points="14.5847 3.8636 12.5847 3.8636 12.5847 7.8026 16.5097 7.8026 16.5097 5.8026 14.5847 5.8026"></polygon>
			<polygon points="12.6053 3.8636 14.6053 3.8636 14.6053 7.8026 10.6803 7.8026 10.6803 5.8026 12.6053 5.8026"></polygon>
			<polygon points="12.6053 9.7728 14.6053 9.7728 14.6053 5.8338 10.6803 5.8338 10.6803 7.8338 12.6053 7.8338"></polygon>
			<polygon points="14.5847 9.7728 12.5847 9.7728 12.5847 5.8338 16.5097 5.8338 16.5097 7.8338 14.5847 7.8338"></polygon>
			<polygon points="6.383 5.833 8.424 5.833 8.424 0 6.383 0"></polygon>
			<polygon points="18.765 18.174 20.807 18.174 20.807 0 18.765 0"></polygon>
			<polygon points="7.403 2.041 19.786 2.041 19.786 0 7.403 0"></polygon>
			<polygon points="14.935 18.174 19.787 18.174 19.787 16.133 14.935 16.133"></polygon>
			<path d="M6.4031,8.011 C2.8671,8.011 0.0001,10.877 0.0001,14.413 C0.0001,17.95 2.8671,20.817 6.4031,20.817 C9.9391,20.817 12.8061,17.95 12.8061,14.413 C12.8061,10.877 9.9391,8.011 6.4031,8.011 M6.4031,10.011 C8.8311,10.011 10.8061,11.986 10.8061,14.413 C10.8061,16.842 8.8311,18.817 6.4031,18.817 C3.9751,18.817 2.0001,16.842 2.0001,14.413 C2.0001,11.986 3.9751,10.011 6.4031,10.011"></path>
		</g>
    </g>
</svg>