<svg xmlns="http://www.w3.org/2000/svg" xmlns:xlink="http://www.w3.org/1999/xlink" viewBox="0 0 24 24">
    <g id="Dark" fill="none">
        <g fill="currentColor" fill-rule="evenodd" transform="translate(1.000000, 1.000000)">
			<path d="M17.4456,-0.0004 L16.4426,1.7306 L10.8806,11.3356 L10.6536,11.7306 L10.6186,12.1846 L10.5126,13.5546 L10.1896,17.7496 L13.6466,15.3506 L14.7966,14.5536 L15.1636,14.2986 L15.3876,13.9126 L19.3626,7.0476 L19.3936,7.0646 L20.3956,5.3336 L20.3656,5.3166 L20.9346,4.3326 L21.9376,2.6016 L20.2066,1.5986 L19.1766,1.0026 L17.4456,-0.0004 Z M17.6036,3.7176 L18.1736,2.7326 L19.2046,3.3296 L18.6346,4.3146 L17.6036,3.7176 Z M12.6116,12.3376 L16.6016,5.4486 L17.6316,6.0446 L13.6566,12.9106 L12.5066,13.7076 L12.6116,12.3376 Z"></path>
			<polygon points="0 21.902 21.937 21.902 21.937 19.944 0 19.944"></polygon>
        </g>
    </g>
</svg>