<svg viewBox="0 0 24 24" xmlns="http://www.w3.org/2000/svg" xmlns:xlink="http://www.w3.org/1999/xlink">
    <g id="Dark" fill-rule="evenodd">
		<g transform="translate(2.000000, 0.000000)">
			<polygon fill="currentColor" points="1.0287 15.1296 1.0287 22.9016 19.0707 22.9016 19.0707 18.0136 17.0707 18.0136 17.0707 20.9026 3.0287 20.9026 3.0287 15.1296"></polygon>
			<polygon fill="currentColor" points="1.0287 0.9996 1.0287 8.8966 3.0287 8.8966 3.0287 3.0006 17.0707 3.0006 17.0707 5.9716 19.0707 5.9716 19.0707 0.9996"></polygon>
			<g transform="translate(0.000000, 0.902000)">
				<path d="M14.545,11.1113 C14.545,10.5593 14.993,10.1113 15.545,10.1113 C16.097,10.1113 16.545,10.5593 16.545,11.1113 C16.545,11.6633 16.097,12.1113 15.545,12.1113 C14.993,12.1113 14.545,11.6633 14.545,11.1113 Z" fill="currentColor"></path>
				<g transform="translate(10.000000, 7.000000)">
					<path d="M2.8799,4.1113 C3.4869,4.8403 4.5259,5.8103 5.5449,5.8103 C6.5639,5.8103 7.6029,4.8403 8.2099,4.1113 C7.6029,3.3833 6.5639,2.4123 5.5449,2.4123 C4.5259,2.4123 3.4869,3.3823 2.8799,4.1113 M5.5449,7.8103 C2.9169,7.8103 1.0029,4.9783 0.7929,4.6553 L0.4399,4.1113 L0.7929,3.5673 C1.0029,3.2443 2.9169,0.4123 5.5449,0.4123 C8.1729,0.4123 10.0869,3.2443 10.2969,3.5673 L10.6509,4.1113 L10.2969,4.6553 C10.0869,4.9783 8.1729,7.8103 5.5449,7.8103" fill="currentColor"></path>
				</g>
				<polygon fill="currentColor" points="5.502 14.8144 4.088 13.4004 6.378 11.1114 4.088 8.8224 5.502 7.4084 9.206 11.1114"></polygon>
				<polygon fill="currentColor" points="0 12.111 7.091 12.111 7.091 10.111 0 10.111"></polygon>
			</g>
		</g>
    </g>
</svg>