<svg viewBox="0 0 24 24" xmlns="http://www.w3.org/2000/svg" xmlns:xlink="http://www.w3.org/1999/xlink">
    <g id="Dark">
		<g transform="translate(2.000000, 1.000000)" fill="currentColor" fill-rule="evenodd">
			<path d="M0.7821,0.0004 L0.7821,2.0004 L0.7821,6.0774 L0.7821,8.0774 L2.7821,8.0774 L6.0411,8.0774 L6.0411,8.8844 L6.0411,9.9954 L3.7831,9.9954 L2.7821,9.9954 L2.7821,10.9954 L2.7821,14.9994 L2.0001,14.9994 L0.0001,14.9994 L0.0001,16.9994 L0.0001,20.0004 L0.0001,22.0004 L2.0001,22.0004 L5.8231,22.0004 L7.8231,22.0004 L7.8231,20.0004 L7.8231,16.9994 L7.8231,14.9994 L5.8231,14.9994 L4.7821,14.9994 L4.7821,11.9954 L7.0471,11.9954 L8.0471,11.9954 L8.0471,9.9954 L8.0401,9.9954 L8.0401,8.8844 L8.0401,8.0774 L11.2991,8.0774 L13.2991,8.0774 L13.2991,6.0774 L13.2991,2.0004 L13.2991,0.0004 L0.7821,0.0004 Z M2.7821,6.0774 L11.3001,6.0774 L11.3001,2.0004 L2.7821,2.0004 L2.7821,6.0774 Z M2.0001,20.0004 L5.8231,20.0004 L5.8231,16.9994 L2.0001,16.9994 L2.0001,20.0004 Z"></path>
			<path d="M10.8279,17.5585 L11.5979,21.9995 L15.4989,19.7425 L20.7059,8.6075 L16.0339,6.4225 L10.8279,17.5585 Z M12.9069,17.8365 L16.9989,9.0815 L18.0469,9.5715 L13.9529,18.3265 L13.0789,18.8315 L12.9069,17.8365 Z"></path>
			<polygon points="17.977 13.1314 14.847 11.6674 15.694 9.8564 18.824 11.3194"></polygon>
		</g>
    </g>
</svg>