<!-- DUPLICATE -->

<svg xmlns="http://www.w3.org/2000/svg" xmlns:xlink="http://www.w3.org/1999/xlink" viewBox="0 0 24 24">
	<g id="Dark">
		<path fill="currentColor" d="M16.1,16.1v6.7h6.7v-6.7H16.1z M20.9,20.9h-2.7v-2.7h2.7V20.9z"/>
		<path fill="currentColor" d="M16.1,1v2.4H14h-1v1v14.1h-2.6c0-0.4-0.1-0.8-0.2-1.1l-3.3,3.4l-0.7,0.8l-0.6-0.9l-1.8-2.6l1.4-1l1.1,1.7
			l2.9-3c-0.6-0.6-1.3-1.1-2.2-1.2v-4.3V9.4h4.1V1H1v8.4h4v0.8v4.4c-1.8,0.5-3.2,2.1-3.2,4.1c0,2.3,1.9,4.3,4.3,4.3
			c1.7,0,3.2-1,3.9-2.5h0.3H14h1v-1V5.4h1.2v2.4h6.7V1H16.1z M3,3h6.1v4.4H3V3z M20.9,5.7h-2.7V3h2.7V5.7z"/>
	</g>
</svg>
