<svg xmlns="http://www.w3.org/2000/svg" viewBox="0 0 24 24" width="24px" height="24px" x="38" y="10" color="white">
  <!-- <ellipse cx="12" cy="12" rx="12" ry="12" class="svgBackground"/> -->
  <g id="start" fill="currentColor">
    <path d="M3.408,21.904 L7.188,3.198 L7.386,2.218 L5.426,1.822 L5.228,2.802 L1.448,21.508 L1.250,22.488 L3.210,22.884 L3.408,21.904 Z"/>
    <path d="M9.008,13.137 L10.878,4.230 L10.117,5.001 C10.146,4.994 10.228,4.980 10.359,4.964 C11.788,4.789 13.540,5.029 15.334,6.022 C17.379,7.155 19.375,7.202 21.110,6.594 C21.526,6.448 21.835,6.296 22.023,6.180 L20.513,5.160 L19.031,13.841 L19.442,13.191 C19.349,13.257 19.136,13.379 18.830,13.506 C17.502,14.057 16.102,14.017 14.728,12.984 C14.626,12.908 14.523,12.834 14.419,12.763 C12.440,11.419 10.333,11.243 8.420,11.749 C8.056,11.845 7.783,11.945 7.616,12.021 L9.008,13.137 Z M7.050,12.727 L6.645,14.658 L8.442,13.843 C8.513,13.811 8.682,13.749 8.931,13.683 C10.331,13.312 11.855,13.439 13.295,14.418 C13.373,14.470 13.450,14.525 13.526,14.583 C15.534,16.092 17.670,16.154 19.598,15.353 C20.049,15.165 20.386,14.972 20.592,14.828 L20.933,14.588 L21.003,14.178 L22.484,5.497 L22.856,3.318 L20.974,4.477 C20.901,4.522 20.720,4.611 20.448,4.707 C19.217,5.138 17.806,5.105 16.303,4.273 C14.100,3.053 11.932,2.756 10.115,2.979 C9.918,3.003 9.772,3.029 9.681,3.049 L9.053,3.189 L8.920,3.819 L7.050,12.727 Z"/>
  </g>
</svg>
