<?xml version="1.0" encoding="UTF-8" standalone="no"?>
<svg width="24px" height="24px" viewBox="0 0 24 24" version="1.1" xmlns="http://www.w3.org/2000/svg" xmlns:xlink="http://www.w3.org/1999/xlink">
    <!-- Generator: Sketch 3.6.1 (26313) - http://www.bohemiancoding.com/sketch -->
    <title>start</title>
    <desc>Created with Sketch.</desc>
    <defs></defs>
    <g id="Dark" stroke="none" stroke-width="1" fill="none" fill-rule="evenodd">
        <g id="start" fill="currentColor">
            <path d="M3.40832944,21.903872 L7.18810917,3.19806149 L7.38617066,2.2178719 L5.42579147,1.82174891 L5.22772997,2.80193851 L1.44795024,21.5077491 L1.24988875,22.4879386 L3.21026794,22.8840616 L3.40832944,21.903872 L3.40832944,21.903872 Z" id="Line"></path>
            <path d="M9.00770178,13.1374895 L10.8776803,4.23034155 L10.1169922,5.00083323 C10.1459468,4.99436628 10.2283615,4.9799107 10.3586203,4.96392621 C11.7877039,4.78855855 13.539881,5.02860344 15.3343703,6.0223342 C17.3791491,7.15466725 19.3753998,7.20227573 21.1101669,6.59386124 C21.5259574,6.4480359 21.8346587,6.29615592 22.0230642,6.18008236 L20.5127895,5.16044729 L19.031154,13.8414606 L19.441989,13.191487 C19.348895,13.2568985 19.1357601,13.3786161 18.8301543,13.5055938 C17.5022228,14.0573427 16.1019221,14.0171885 14.7277669,12.9842142 C14.6258469,12.9075993 14.5229546,12.8340257 14.4191215,12.7634685 C12.439917,11.4185493 10.3327809,11.2430984 8.41952449,11.7493107 C8.05635369,11.845399 7.78342608,11.9453799 7.61599922,12.0213133 L9.00770178,13.1374895 L9.00770178,13.1374895 L9.00770178,13.1374895 Z M7.05037169,12.7265651 L6.64492454,14.6578054 L8.44207425,13.8427413 C8.51275831,13.8106839 8.68202013,13.7486786 8.9310849,13.6827806 C10.330978,13.3123948 11.855249,13.4393133 13.2950387,14.4176867 C13.3725244,14.4703402 13.4495193,14.5253957 13.526012,14.5828965 C15.5339857,16.0923224 17.6696064,16.1535621 19.5975408,15.352515 C20.0488958,15.1649793 20.3864928,14.9721835 20.5918103,14.8279194 L20.9325765,14.5884837 L21.0026453,14.1779457 L22.4842808,5.49693237 L22.8562232,3.31769393 L20.9740061,4.47729731 C20.9014693,4.52198603 20.7200383,4.61124948 20.4482586,4.70656757 C19.2168487,5.13844547 17.8058836,5.10479544 16.3032653,4.27269353 C14.1004487,3.05284421 11.9323015,2.75581219 10.1150209,2.97881682 C9.91825047,3.00296317 9.77186954,3.02863845 9.68103825,3.0489254 L9.05264282,3.18927601 L8.92035017,3.81941707 L7.05037169,12.7265651 L7.05037169,12.7265651 L7.05037169,12.7265651 Z" id="Line-Copy-2"></path>
        </g>
    </g>
</svg>