<svg xmlns="http://www.w3.org/2000/svg" xmlns:xlink="http://www.w3.org/1999/xlink" viewBox="0 0 24 24">
	<g id="Dark">
		<path fill="currentColor" d="M9,9.9V9.1h5.3V1H1.8v8.1H7v0.8V11H4.8h-1v1v4H1v7h7.8v-7h-3v-3H8h1v-2h0V9.9z M3.8,3h8.5v4.1H3.8V3z M6.8,21
			H3v-3h3.8V21z"/>
		<path fill="currentColor" d="M16.7,16l4.2,2.1l2.2-4.4l-1.8-0.9L20.7,14c-0.9-2-2.8-3.4-5-3.4c-3.1,0-5.5,2.6-5.5,5.8s2.5,5.8,5.5,5.8
			c1.9,0,3.7-1,4.7-2.7l-1.7-1c-0.6,1.1-1.7,1.7-2.9,1.7c-1.9,0-3.5-1.7-3.5-3.8c0-2.1,1.6-3.8,3.5-3.8c1.4,0,2.7,0.9,3.2,2.3
			l-1.3-0.7L16.7,16z"/>
	</g>
</svg>
