<svg xmlns="http://www.w3.org/2000/svg" xmlns:xlink="http://www.w3.org/1999/xlink" viewBox="0 0 24 24">
    <g id="Dark" fill="none">
		<g fill-rule="evenodd" transform="translate(2.000000, 2.000000)">
			<polygon points="10.01815 19.8841 20.036 19.8841 20.036 0.0001 10.01815 0.0001 0.0003 0.0001 0.0003 19.8841 10.01815 19.8841"></polygon>
			<path fill="currentColor" d="M10.1043,17.8841 C8.1443,17.8841 6.5553,16.2951 6.5553,14.3351 L6.5563,13.8161 C6.5463,13.8181 6.5403,13.8191 6.5313,13.8201 C6.0913,13.8931 5.8963,13.9031 5.6393,13.9031 C5.5553,13.9031 5.4653,13.9021 5.3563,13.9021 C3.5023,13.9021 2.0003,12.3991 2.0003,10.5451 C2.0003,9.1761 2.8203,7.9981 3.9963,7.4761 L4.0203,7.4901 C3.9123,7.1141 3.8373,6.7241 3.8373,6.3141 C3.8373,4.5051 4.9523,2.9621 6.5313,2.3201 C7.0313,2.1171 7.5773,2.0001 8.1503,2.0001 C10.0483,2.0001 11.6423,3.2341 12.2193,4.9371 C12.5633,4.5241 13.0743,4.2561 13.6533,4.2561 C14.6883,4.2561 15.5273,5.0951 15.5273,6.1301 C15.5273,6.3281 15.4883,6.5141 15.4323,6.6931 C13.2503,6.8721 11.5313,8.6501 11.5313,10.8421 C11.5313,12.3811 12.3853,13.7111 13.6433,14.4381 C13.5873,16.3491 12.0293,17.8841 10.1043,17.8841 M19.8103,9.4931 L16.5383,12.8321 L15.7963,13.5891 L15.5423,13.2251 L15.1913,12.7231 L13.4293,10.2001 L14.8673,9.2281 L15.1673,9.6841 L15.9913,10.9361 L18.8783,7.9731 C18.4723,7.5491 17.9743,7.2161 17.4203,6.9871 C17.4833,6.7101 17.5273,6.4261 17.5273,6.1301 C17.5273,3.9941 15.7893,2.2561 13.6533,2.2561 C13.4373,2.2561 13.2233,2.2741 13.0133,2.3101 C12.8213,2.0751 12.6083,1.8611 12.3863,1.6581 C11.2523,0.6191 9.7573,0.0001 8.1503,0.0001 C4.6693,0.0001 1.8373,2.8321 1.8373,6.3141 C1.8373,6.3771 1.8383,6.4411 1.8403,6.5041 C0.6913,7.5061 0.0003,8.9721 0.0003,10.5451 C0.0003,13.3021 2.0923,15.5781 4.7723,15.8711 C5.0793,16.9361 5.7073,17.8591 6.5313,18.5571 C7.4983,19.3781 8.7393,19.8841 10.1043,19.8841 C12.9353,19.8841 15.2743,17.7511 15.6083,15.0091 C15.6673,15.0111 15.7233,15.0261 15.7833,15.0261 C18.1323,15.0261 20.0363,13.1531 20.0363,10.8421 C20.0363,10.3701 19.9563,9.9171 19.8103,9.4931"></path>
		</g>
    </g>
</svg>