<svg viewBox="0 0 24 24" xmlns="http://www.w3.org/2000/svg" xmlns:xlink="http://www.w3.org/1999/xlink">
    <g id="Dark" fill-rule="evenodd">
		<g transform="translate(2.000000, 2.000000)">
			<g transform="translate(7.000000, 0.456400)">
				<path d="M7.3398,10.5436 L7.3398,10.5286 L5.9978,10.5056 L5.9978,2.5206 L7.2078,2.5206 L7.2018,2.5206 L7.3188,2.5206 L7.3188,2.5206 L8.9738,2.5206 L8.9738,0.5436 L7.2018,0.5436 C6.3348,0.5436 5.7588,1.0526 5.4918,1.6976 L4.5498,1.6976 C4.2758,1.0546 3.6888,0.5436 2.8178,0.5436 L0.9978,0.5436 L0.9978,2.4926 L2.7258,2.4926 C2.7278,2.5006 2.7288,2.4856 2.7298,2.4926 L3.9978,2.4926 L3.9978,10.5346 L2.7968,10.5476 C2.8048,10.5456 2.8118,10.5436 2.8178,10.5436 L0.9978,10.5436 L0.9978,12.5436 L2.8178,12.5436 C3.3198,12.5436 3.7618,12.3656 4.0958,12.0286 C4.2798,11.8426 4.4018,11.6326 4.4868,11.4286 L5.5198,11.4286 C5.6038,11.6316 5.7218,11.8396 5.9028,12.0236 C6.2338,12.3636 6.6738,12.5436 7.1778,12.5436 L8.9978,12.5436 L8.9978,10.5436 L7.3398,10.5436 Z" fill="currentColor"></path>
			</g>
			<g transform="translate(0.000000, 1.456400)">
				<polygon fill="currentColor" points="15.123 3.8903 15.123 5.8903 17.992 5.8903 17.992 17.0003 2 17.0003 2 2.9323 5.052 2.9323 8.778 5.8903 8.854 5.8903 8.854 3.3013 5.87 0.9323 0 0.9323 0 19.0003 19.992 19.0003 19.992 3.8903"></polygon>
			</g>
		</g>
    </g>
</svg>