<svg xmlns="http://www.w3.org/2000/svg" xmlns:xlink="http://www.w3.org/1999/xlink" viewBox="0 0 24 24">
    <g id="Dark" fill="none">
        <g fill="currentColor" fill-rule="evenodd">
            <path d="M5,1.0002 L5,3.1282 L5,7.8722 L5,10.0002 L7,10.0002 L11,10.0002 L11,11.6922 L11,12.0002 L8,12.0002 L7,12.0002 L6,12.0002 L6,12.9622 L6,13.0002 L6,14.0002 L6,15.9622 L6,16.0002 L4,16.0002 L4,18.0002 L4,20.7692 L4,22.7692 L6,22.7692 L8.815,22.7692 L10.815,22.7692 L10.815,20.7692 L10.815,18.0002 L10.815,16.0002 L8.815,16.0002 L8,16.0002 L8,15.9622 L8,14.0002 L15,14.0002 L15,15.9622 L15,16.0002 L13,16.0002 L13,18.0002 L13,20.7692 L13,21.9622 L13,22.7692 L15,22.7692 L17.815,22.7692 L19.815,22.7692 L19.815,16.0002 L17.815,16.0002 L17,16.0002 L17,15.9622 L17,13.0002 L17,12.0002 L16.52,12.0002 L15.52,12.0002 L15,12.0002 L13,12.0002 L13,11.6922 L13,10.0002 L16.63,10.0002 L18.63,10.0002 L18.63,7.8722 L18.63,3.1282 L18.63,1.0002 L5,1.0002 Z M9.519,4.4802 L10.864,4.4802 L11,4.4802 L11,4.3432 L11,3.1282 L11,3.0002 L13,3.0002 L13,3.1282 L13,4.3432 L13,4.4802 L13.137,4.4802 L14.481,4.4802 L14.481,6.4812 L13.137,6.4812 L13,6.4812 L13,6.6182 L13,7.0002 L13,7.8722 L13,7.9622 L11,7.9622 L11,7.8722 L11,6.6182 L11,6.4812 L10.864,6.4812 L9.519,6.4812 L9.519,4.4802 Z M15,20.7692 L17.815,20.7692 L17.815,18.0002 L15,18.0002 L15,20.7692 Z M6,20.7692 L8.815,20.7692 L8.815,18.0002 L6,18.0002 L6,20.7692 Z"></path>
        </g>
    </g>
</svg>