<svg xmlns="http://www.w3.org/2000/svg" xmlns:xlink="http://www.w3.org/1999/xlink" viewBox="0 0 24 24">
<g id="Dark">
	<polygon fill="currentColor" points="17.2,22 2,22 2,2 17.2,2 17.2,7.3 19.2,7.3 19.2,0 0,0 0,24 19.2,24 19.2,21.4 17.2,21.4 	"/>
	<polygon fill="currentColor" points="6.9,4.5 4.5,6.9 3.8,7.6 4.5,8.3 6.9,10.7 8.3,9.3 6.6,7.6 8.3,5.9 	"/>
	<polygon fill="currentColor" points="10.9,10.7 13.3,8.3 14,7.6 13.3,6.9 10.9,4.5 9.5,5.9 11.1,7.6 9.5,9.3 	"/>
	<path fill="currentColor" d="M17,14.3l4,2l2-4l-1.8-0.9l-0.5,0.9c-0.8-1.8-2.6-3-4.7-3c-2.9,0-5.2,2.3-5.2,5.2s2.3,5.2,5.2,5.2
		c1.8,0,3.4-0.9,4.4-2.4l-1.7-1.1c-0.6,0.9-1.6,1.5-2.7,1.5c-1.8,0-3.2-1.5-3.2-3.2s1.5-3.2,3.2-3.2c1.2,0,2.2,0.7,2.8,1.6l-0.9-0.5
		L17,14.3z"/>
</g>
</svg>
