<svg xmlns="http://www.w3.org/2000/svg" xmlns:xlink="http://www.w3.org/1999/xlink" viewBox="0 0 24 24">
    <g id="Dark" fill="none">
		<g fill="currentColor" fill-rule="evenodd" transform="translate(3.000000, 2.000000)">
			<path d="M13.0274,10.1391 C13.0274,7.7251 11.0634,5.7611 8.6494,5.7611 C6.2354,5.7611 4.2714,7.7251 4.2714,10.1391 C4.2714,11.6781 5.0814,13.0871 6.3944,13.8801 L6.3944,10.8611 C6.3204,10.6301 6.2714,10.3891 6.2714,10.1391 C6.2714,8.8281 7.3384,7.7611 8.6494,7.7611 C9.9614,7.7611 11.0274,8.8281 11.0274,10.1391 C11.0274,10.7411 10.7954,11.2961 10.4154,11.7221 L10.4154,10.1391 L8.4154,10.1391 L8.4154,15.1401 L13.4154,15.1391 L13.4154,13.1401 L11.8144,13.1401 C12.5684,12.3491 13.0274,11.2911 13.0274,10.1391"></path>
			<path d="M8.9934,18.791 C1.8694,16.28 1.9914,12.228 1.9974,12.094 L2.0064,11.998 L2.0064,11.901 L2.0064,4.817 C3.8154,4.753 6.5734,4.332 8.9934,2.619 C11.4134,4.332 14.1714,4.753 15.9804,4.817 L15.9804,11.901 L15.9804,11.998 L15.9894,12.094 C15.9934,12.136 16.1784,16.257 8.9934,18.791 M17.9804,11.901 L17.9804,2.735 C17.9804,2.735 17.4054,2.826 16.5084,2.826 C14.6384,2.826 11.3684,2.432 8.9934,0 C6.6194,2.432 3.3484,2.826 1.4784,2.826 C0.5814,2.826 0.0064,2.735 0.0064,2.735 L0.0064,11.901 C0.0064,11.901 -0.5666,17.828 8.9934,20.901 C18.5534,17.828 17.9804,11.901 17.9804,11.901"></path>
		</g>
    </g>
</svg>