<svg viewBox="0 0 24 24" xmlns="http://www.w3.org/2000/svg" xmlns:xlink="http://www.w3.org/1999/xlink">
    <g id="Dark" fill-rule="evenodd">
		<g transform="translate(1,0) scale(1.04)">
			<path d="M9.7803,1 L9.7803,2.435 L9.7803,6.28 L9.7803,7.565 L9.7803,11.41 L9.7803,21.925 L21.2703,21.925 L21.2703,1 L9.7803,1 Z M11.7803,7.753 L11.7803,6.092 L11.7803,3 L19.2703,3 L19.2703,19.925 L11.7803,19.925 L11.7803,7.753 Z" fill="currentColor"></path>
			<g transform="translate(0.000000, 0.925000)">
				<path d="M15.5251,5.6982 C15.9381,5.6982 16.2751,6.0342 16.2751,6.4472 C16.2751,6.8602 15.9381,7.1972 15.5251,7.1972 C15.1121,7.1972 14.7761,6.8602 14.7761,6.4472 C14.7761,6.0342 15.1121,5.6982 15.5251,5.6982 M15.5251,9.1972 C17.0421,9.1972 18.2751,7.9642 18.2751,6.4472 C18.2751,4.9312 17.0421,3.6982 15.5251,3.6982 C14.0091,3.6982 12.7761,4.9312 12.7761,6.4472 C12.7761,7.9642 14.0091,9.1972 15.5251,9.1972" fill="currentColor"></path>
				<path d="M15.5251,17.2461 C17.0421,17.2461 18.2751,16.0131 18.2751,14.4961 C18.2751,12.9801 17.0421,11.7471 15.5251,11.7471 C14.0091,11.7471 12.7761,12.9801 12.7761,14.4961 C12.7761,16.0131 14.0091,17.2461 15.5251,17.2461" fill="currentColor"></path>
				<polygon fill="currentColor" points="4.6716 3.3105 4.6716 7.2495 8.5966 7.2495 8.5966 5.2495 6.6716 5.2495 6.6716 3.3105"></polygon>
				<path d="M-0.0003,5.998 C-0.0003,9.269 2.6517,11.92 5.9227,11.92 C6.9627,11.92 7.9317,11.639 8.7797,11.167 L8.7797,8.653 C8.0667,9.427 7.0567,9.92 5.9227,9.92 C3.7597,9.92 1.9997,8.16 1.9997,5.998 C1.9997,3.835 3.7597,2.075 5.9227,2.075 C7.0567,2.075 8.0667,2.569 8.7797,3.342 L8.7797,0.828 C7.9317,0.356 6.9627,0.075 5.9227,0.075 C2.6517,0.075 -0.0003,2.727 -0.0003,5.998" fill="currentColor"></path>
			</g>
		</g>
    </g>
</svg>