<svg viewBox="0 0 24 24" xmlns="http://www.w3.org/2000/svg" xmlns:xlink="http://www.w3.org/1999/xlink">
    <g id="Dark" fill-rule="evenodd">
		<path d="M7.444,1 L1,7.443 L1,16.556 L7.444,23 L16.557,23 L23,16.556 L23,7.443 L16.557,1 L7.444,1 Z M3,15.728 L3,8.272 L8.272,3 L15.728,3 L21,8.272 L21,15.728 L15.728,21 L8.272,21 L3,15.728 Z" fill="currentColor"></path>
		<g transform="translate(7.000000, 7.000000)">
			<path d="M4.1055,4.69924 C4.1055,4.14724 4.5535,3.69924 5.1055,3.69924 C5.6575,3.69924 6.1055,4.14724 6.1055,4.69924 C6.1055,5.25124 5.6575,5.69924 5.1055,5.69924 C4.5535,5.69924 4.1055,5.25124 4.1055,4.69924" fill="currentColor"></path>
			<g transform="translate(0.000000, 0.398440)">
				<path d="M2.4404,4.3008 C3.0474,5.0298 4.0864,5.9998 5.1054,5.9998 C6.1244,5.9998 7.1634,5.0298 7.7704,4.3008 C7.1634,3.5728 6.1244,2.6018 5.1054,2.6018 C4.0864,2.6018 3.0474,3.5718 2.4404,4.3008 M5.1054,7.9998 C2.4774,7.9998 0.5634,5.1678 0.3534,4.8448 L0.0004,4.3008 L0.3534,3.7568 C0.5634,3.4338 2.4774,0.6018 5.1054,0.6018 C7.7334,0.6018 9.6474,3.4338 9.8574,3.7568 L10.2114,4.3008 L9.8574,4.8448 C9.6474,5.1678 7.7334,7.9998 5.1054,7.9998" fill="currentColor"></path>
			</g>
		</g>
    </g>
</svg>