<svg viewBox="0 0 24 24" xmlns="http://www.w3.org/2000/svg" xmlns:xlink="http://www.w3.org/1999/xlink">
    <g id="Dark" fill-rule="evenodd">
		<g transform="translate(1.000000, 1.000000)" fill="currentColor">
			<path d="M6.444,0.0004 L0,6.4434 L0,15.5564 L6.444,22.0004 L15.557,22.0004 L22,15.5564 L22,6.4434 L15.557,0.0004 L6.444,0.0004 Z M2,14.7284 L2,7.2724 L7.272,2.0004 L14.728,2.0004 L20,7.2724 L20,14.7284 L14.728,20.0004 L7.272,20.0004 L2,14.7284 Z"></path>
			<path d="M7.4196,13.1091 L7.2416,14.1031 L8.2356,13.9251 L15.0696,7.0921 L14.2526,6.2741 L7.4196,13.1091 Z M4.7696,16.5761 L5.5606,12.1381 L14.2526,3.4461 L17.8986,7.0921 L9.2066,15.7851 L4.7696,16.5761 Z"></path>
			<polygon points="13.7907 10.4147 11.3477 7.9717 12.7617 6.5577 15.2047 9.0007"></polygon>
		</g>
    </g>
</svg>