<svg xmlns="http://www.w3.org/2000/svg" xmlns:xlink="http://www.w3.org/1999/xlink" viewBox="0 0 24 24">
    <g id="Dark" fill="none">
        <g fill="currentColor" fill-rule="evenodd" transform="translate(3.000000, 1.000000)">
			<polygon points="0.1782 -0.0004 0.1782 2.0006 16.0412 2.0006 16.0412 17.9486 16.0412 18.1106 16.0412 19.9026 2.0002 19.9026 2.0002 10.9506 0.0002 10.9506 0.0002 21.9016 18.0412 21.9016 18.0412 -0.0004"></polygon>
			<polygon points="8.0955 13.2609 10.7565 15.9219 9.1705 15.9219 9.1705 17.9219 14.1705 17.9219 14.1705 12.9209 12.1705 12.9209 12.1705 14.5079 9.5095 11.8469"></polygon>
			<polygon points="8.5093 10.0827 12.0453 6.5467 8.5093 3.0107 7.0953 4.4247 9.2173 6.5467 7.0953 8.6687"></polygon>
			<polygon points="0.1782 6.5462 3.7142 10.0822 5.1292 8.6682 3.0072 6.5462 5.1292 4.4252 3.7142 3.0112"></polygon>
        </g>
    </g>
</svg>